solid handleSimple
facet normal 0.0 0.0 -1.0
  outer loop
    vertex -1.81173331571764 6.76148078402348 0.0
    vertex -2.0 2.44929359829471e-16 0.0
    vertex -3.5 6.06217782649107 0.0
  endloop
endfacet
facet normal 0.0 0.0 -1.0
  outer loop
    vertex -2.0 2.44929359829471e-16 0.0
    vertex -1.81173331571764 6.76148078402348 0.0
    vertex -1.93185165257814 0.517638090205042 0.0
  endloop
endfacet
facet normal 0.0 0.0 -1.0
  outer loop
    vertex -1.93185165257814 0.517638090205042 0.0
    vertex -1.81173331571764 6.76148078402348 0.0
    vertex -1.73205080756888 1.0 0.0
  endloop
endfacet
facet normal 0.0 0.0 -1.0
  outer loop
    vertex -1.73205080756888 1.0 0.0
    vertex -1.81173331571764 6.76148078402348 0.0
    vertex 4.28626379701574e-16 7.0 0.0
  endloop
endfacet
facet normal 0.0 0.0 -1.0
  outer loop
    vertex -1.73205080756888 1.0 0.0
    vertex 4.28626379701574e-16 7.0 0.0
    vertex -1.41421356237309 1.4142135623731 0.0
  endloop
endfacet
facet normal 0.0 0.0 -1.0
  outer loop
    vertex -1.41421356237309 1.4142135623731 0.0
    vertex 4.28626379701574e-16 7.0 0.0
    vertex -0.999999999999999 1.73205080756888 0.0
  endloop
endfacet
facet normal 0.0 0.0 -1.0
  outer loop
    vertex -0.999999999999999 1.73205080756888 0.0
    vertex 4.28626379701574e-16 7.0 0.0
    vertex -0.517638090205041 1.93185165257814 0.0
  endloop
endfacet
facet normal 0.0 0.0 -1.0
  outer loop
    vertex -0.517638090205041 1.93185165257814 0.0
    vertex 4.28626379701574e-16 7.0 0.0
    vertex 1.22464679914735e-16 2.0 0.0
  endloop
endfacet
facet normal 0.0 0.0 -1.0
  outer loop
    vertex 1.22464679914735e-16 2.0 0.0
    vertex 4.28626379701574e-16 7.0 0.0
    vertex 0.517638090205042 1.93185165257814 0.0
  endloop
endfacet
facet normal 0.0 0.0 -1.0
  outer loop
    vertex 0.517638090205042 1.93185165257814 0.0
    vertex 4.28626379701574e-16 7.0 0.0
    vertex 1.81173331571765 6.76148078402348 0.0
  endloop
endfacet
facet normal 0.0 0.0 -1.0
  outer loop
    vertex 0.517638090205042 1.93185165257814 0.0
    vertex 1.81173331571765 6.76148078402348 0.0
    vertex 1.0 1.73205080756888 0.0
  endloop
endfacet
facet normal 0.0 0.0 -1.0
  outer loop
    vertex 1.0 1.73205080756888 0.0
    vertex 1.81173331571765 6.76148078402348 0.0
    vertex 1.41421356237309 1.41421356237309 0.0
  endloop
endfacet
facet normal 0.0 0.0 -1.0
  outer loop
    vertex 1.41421356237309 1.41421356237309 0.0
    vertex 1.81173331571765 6.76148078402348 0.0
    vertex 1.73205080756888 1.0 0.0
  endloop
endfacet
facet normal 0.0 0.0 -1.0
  outer loop
    vertex 1.73205080756888 1.0 0.0
    vertex 1.81173331571765 6.76148078402348 0.0
    vertex 1.93185165257814 0.517638090205041 0.0
  endloop
endfacet
facet normal 0.0 0.0 -1.0
  outer loop
    vertex 1.93185165257814 0.517638090205041 0.0
    vertex 1.81173331571765 6.76148078402348 0.0
    vertex 3.5 6.06217782649107 0.0
  endloop
endfacet
facet normal 0.0 0.0 -1.0
  outer loop
    vertex 1.93185165257814 0.517638090205041 0.0
    vertex 3.5 6.06217782649107 0.0
    vertex 2.0 0.0 0.0
  endloop
endfacet
facet normal 0.0 0.0 -1.0
  outer loop
    vertex 2.0 0.0 0.0
    vertex 3.5 6.06217782649107 0.0
    vertex 3.49999999999999 -6.06217782649107 0.0
  endloop
endfacet
facet normal 0.0 0.0 -1.0
  outer loop
    vertex 3.49999999999999 -6.06217782649107 0.0
    vertex 3.5 6.06217782649107 0.0
    vertex 4.94974746830583 -4.94974746830583 0.0
  endloop
endfacet
facet normal 0.0 0.0 -1.0
  outer loop
    vertex 4.94974746830583 -4.94974746830583 0.0
    vertex 3.5 6.06217782649107 0.0
    vertex 4.94974746830583 4.94974746830583 0.0
  endloop
endfacet
facet normal 0.0 0.0 -1.0
  outer loop
    vertex 4.94974746830583 -4.94974746830583 0.0
    vertex 4.94974746830583 4.94974746830583 0.0
    vertex 6.06217782649107 -3.5 0.0
  endloop
endfacet
facet normal 0.0 0.0 -1.0
  outer loop
    vertex 6.06217782649107 -3.5 0.0
    vertex 4.94974746830583 4.94974746830583 0.0
    vertex 6.06217782649107 3.5 0.0
  endloop
endfacet
facet normal 0.0 0.0 -1.0
  outer loop
    vertex 6.06217782649107 -3.5 0.0
    vertex 6.06217782649107 3.5 0.0
    vertex 6.76148078402348 -1.81173331571765 0.0
  endloop
endfacet
facet normal 0.0 0.0 -1.0
  outer loop
    vertex 6.76148078402348 -1.81173331571765 0.0
    vertex 6.06217782649107 3.5 0.0
    vertex 6.76148078402348 1.81173331571764 0.0
  endloop
endfacet
facet normal 0.0 0.0 -1.0
  outer loop
    vertex 6.76148078402348 -1.81173331571765 0.0
    vertex 6.76148078402348 1.81173331571764 0.0
    vertex 7.0 0.0 0.0
  endloop
endfacet
facet normal 0.0 0.0 -1.0
  outer loop
    vertex -6.76148078402348 1.81173331571765 0.0
    vertex -6.76148078402348 -1.81173331571764 0.0
    vertex -7.0 8.57252759403147e-16 0.0
  endloop
endfacet
facet normal 0.0 0.0 -1.0
  outer loop
    vertex -6.76148078402348 -1.81173331571764 0.0
    vertex -6.76148078402348 1.81173331571765 0.0
    vertex -6.06217782649107 -3.5 0.0
  endloop
endfacet
facet normal 0.0 0.0 -1.0
  outer loop
    vertex -6.06217782649107 -3.5 0.0
    vertex -6.76148078402348 1.81173331571765 0.0
    vertex -6.06217782649107 3.5 0.0
  endloop
endfacet
facet normal 0.0 0.0 -1.0
  outer loop
    vertex -6.06217782649107 -3.5 0.0
    vertex -6.06217782649107 3.5 0.0
    vertex -4.94974746830583 -4.94974746830583 0.0
  endloop
endfacet
facet normal 0.0 0.0 -1.0
  outer loop
    vertex -4.94974746830583 -4.94974746830583 0.0
    vertex -6.06217782649107 3.5 0.0
    vertex -4.94974746830583 4.94974746830583 0.0
  endloop
endfacet
facet normal 0.0 0.0 -1.0
  outer loop
    vertex -4.94974746830583 -4.94974746830583 0.0
    vertex -4.94974746830583 4.94974746830583 0.0
    vertex -3.5 -6.06217782649107 0.0
  endloop
endfacet
facet normal 0.0 0.0 -1.0
  outer loop
    vertex -3.5 -6.06217782649107 0.0
    vertex -4.94974746830583 4.94974746830583 0.0
    vertex -3.5 6.06217782649107 0.0
  endloop
endfacet
facet normal 0.0 0.0 -1.0
  outer loop
    vertex -3.5 -6.06217782649107 0.0
    vertex -3.5 6.06217782649107 0.0
    vertex -1.81173331571765 -6.76148078402348 0.0
  endloop
endfacet
facet normal 0.0 0.0 -1.0
  outer loop
    vertex -1.81173331571765 -6.76148078402348 0.0
    vertex -3.5 6.06217782649107 0.0
    vertex -2.0 2.44929359829471e-16 0.0
  endloop
endfacet
facet normal 0.0 0.0 -1.0
  outer loop
    vertex -1.81173331571765 -6.76148078402348 0.0
    vertex -2.0 2.44929359829471e-16 0.0
    vertex -1.93185165257814 -0.517638090205041 0.0
  endloop
endfacet
facet normal 0.0 0.0 -1.0
  outer loop
    vertex -1.81173331571765 -6.76148078402348 0.0
    vertex -1.93185165257814 -0.517638090205041 0.0
    vertex -1.73205080756888 -0.999999999999999 0.0
  endloop
endfacet
facet normal 0.0 0.0 -1.0
  outer loop
    vertex -1.81173331571765 -6.76148078402348 0.0
    vertex -1.73205080756888 -0.999999999999999 0.0
    vertex -1.28587913910472e-15 -7.0 0.0
  endloop
endfacet
facet normal 0.0 0.0 -1.0
  outer loop
    vertex -1.28587913910472e-15 -7.0 0.0
    vertex -1.73205080756888 -0.999999999999999 0.0
    vertex -1.4142135623731 -1.41421356237309 0.0
  endloop
endfacet
facet normal 0.0 0.0 -1.0
  outer loop
    vertex -1.28587913910472e-15 -7.0 0.0
    vertex -1.4142135623731 -1.41421356237309 0.0
    vertex -1.0 -1.73205080756888 0.0
  endloop
endfacet
facet normal 0.0 0.0 -1.0
  outer loop
    vertex -1.28587913910472e-15 -7.0 0.0
    vertex -1.0 -1.73205080756888 0.0
    vertex -0.517638090205043 -1.93185165257814 0.0
  endloop
endfacet
facet normal 0.0 0.0 -1.0
  outer loop
    vertex -1.28587913910472e-15 -7.0 0.0
    vertex -0.517638090205043 -1.93185165257814 0.0
    vertex -3.67394039744206e-16 -2.0 0.0
  endloop
endfacet
facet normal 0.0 0.0 -1.0
  outer loop
    vertex -1.28587913910472e-15 -7.0 0.0
    vertex -3.67394039744206e-16 -2.0 0.0
    vertex 1.81173331571764 -6.76148078402348 0.0
  endloop
endfacet
facet normal 0.0 0.0 -1.0
  outer loop
    vertex 1.81173331571764 -6.76148078402348 0.0
    vertex -3.67394039744206e-16 -2.0 0.0
    vertex 0.51763809020504 -1.93185165257814 0.0
  endloop
endfacet
facet normal 0.0 0.0 -1.0
  outer loop
    vertex 1.81173331571764 -6.76148078402348 0.0
    vertex 0.51763809020504 -1.93185165257814 0.0
    vertex 0.999999999999998 -1.73205080756888 0.0
  endloop
endfacet
facet normal 0.0 0.0 -1.0
  outer loop
    vertex 1.81173331571764 -6.76148078402348 0.0
    vertex 0.999999999999998 -1.73205080756888 0.0
    vertex 1.41421356237309 -1.4142135623731 0.0
  endloop
endfacet
facet normal 0.0 0.0 -1.0
  outer loop
    vertex 1.81173331571764 -6.76148078402348 0.0
    vertex 1.41421356237309 -1.4142135623731 0.0
    vertex 1.73205080756888 -1.0 0.0
  endloop
endfacet
facet normal 0.0 0.0 -1.0
  outer loop
    vertex 1.81173331571764 -6.76148078402348 0.0
    vertex 1.73205080756888 -1.0 0.0
    vertex 1.93185165257814 -0.517638090205043 0.0
  endloop
endfacet
facet normal 0.0 0.0 -1.0
  outer loop
    vertex 1.81173331571764 -6.76148078402348 0.0
    vertex 1.93185165257814 -0.517638090205043 0.0
    vertex 3.49999999999999 -6.06217782649107 0.0
  endloop
endfacet
facet normal 0.0 0.0 -1.0
  outer loop
    vertex 3.49999999999999 -6.06217782649107 0.0
    vertex 1.93185165257814 -0.517638090205043 0.0
    vertex 2.0 0.0 0.0
  endloop
endfacet
facet normal 0.0 0.0 -1.0
  outer loop
    vertex 69.2385192159766 1.81173331571763 0.0
    vertex 74.0 0.0 0.0
    vertex 69.0 0.0 0.0
  endloop
endfacet
facet normal 0.0 0.0 -1.0
  outer loop
    vertex 74.0 0.0 0.0
    vertex 69.2385192159766 1.81173331571763 0.0
    vertex 69.9378221735089 3.49999999999999 0.0
  endloop
endfacet
facet normal 0.0 0.0 -1.0
  outer loop
    vertex 74.0 0.0 0.0
    vertex 69.9378221735089 3.49999999999999 0.0
    vertex 71.0502525316942 4.94974746830583 0.0
  endloop
endfacet
facet normal 0.0 0.0 -1.0
  outer loop
    vertex 74.0 0.0 0.0
    vertex 71.0502525316942 4.94974746830583 0.0
    vertex 72.5 6.06217782649107 0.0
  endloop
endfacet
facet normal 0.0 0.0 -1.0
  outer loop
    vertex 74.0 0.0 0.0
    vertex 72.5 6.06217782649107 0.0
    vertex 74.1882666842824 6.76148078402346 0.0
  endloop
endfacet
facet normal 0.0 0.0 -1.0
  outer loop
    vertex 74.0 0.0 0.0
    vertex 74.1882666842824 6.76148078402346 0.0
    vertex 74.0681483474219 0.517638090205045 0.0
  endloop
endfacet
facet normal 0.0 0.0 -1.0
  outer loop
    vertex 74.0681483474219 0.517638090205045 0.0
    vertex 74.1882666842824 6.76148078402346 0.0
    vertex 74.2679491924311 0.999999999999996 0.0
  endloop
endfacet
facet normal 0.0 0.0 -1.0
  outer loop
    vertex 74.2679491924311 0.999999999999996 0.0
    vertex 74.1882666842824 6.76148078402346 0.0
    vertex 76.0 6.99999999999998 0.0
  endloop
endfacet
facet normal 0.0 0.0 -1.0
  outer loop
    vertex 74.2679491924311 0.999999999999996 0.0
    vertex 76.0 6.99999999999998 0.0
    vertex 74.5857864376269 1.41421356237309 0.0
  endloop
endfacet
facet normal 0.0 0.0 -1.0
  outer loop
    vertex 74.5857864376269 1.41421356237309 0.0
    vertex 76.0 6.99999999999998 0.0
    vertex 75.0 1.73205080756888 0.0
  endloop
endfacet
facet normal 0.0 0.0 -1.0
  outer loop
    vertex 75.0 1.73205080756888 0.0
    vertex 76.0 6.99999999999998 0.0
    vertex 75.482361909795 1.93185165257813 0.0
  endloop
endfacet
facet normal 0.0 0.0 -1.0
  outer loop
    vertex 75.482361909795 1.93185165257813 0.0
    vertex 76.0 6.99999999999998 0.0
    vertex 76.0 1.99999999999999 0.0
  endloop
endfacet
facet normal 0.0 0.0 -1.0
  outer loop
    vertex 76.0 1.99999999999999 0.0
    vertex 76.0 6.99999999999998 0.0
    vertex 77.8117333157176 6.76148078402346 0.0
  endloop
endfacet
facet normal 0.0 0.0 -1.0
  outer loop
    vertex 76.0 1.99999999999999 0.0
    vertex 77.8117333157176 6.76148078402346 0.0
    vertex 76.517638090205 1.93185165257813 0.0
  endloop
endfacet
facet normal 0.0 0.0 -1.0
  outer loop
    vertex 76.517638090205 1.93185165257813 0.0
    vertex 77.8117333157176 6.76148078402346 0.0
    vertex 77.0 1.73205080756888 0.0
  endloop
endfacet
facet normal 0.0 0.0 -1.0
  outer loop
    vertex 77.0 1.73205080756888 0.0
    vertex 77.8117333157176 6.76148078402346 0.0
    vertex 77.4142135623731 1.41421356237309 0.0
  endloop
endfacet
facet normal 0.0 0.0 -1.0
  outer loop
    vertex 77.4142135623731 1.41421356237309 0.0
    vertex 77.8117333157176 6.76148078402346 0.0
    vertex 77.7320508075689 0.999999999999996 0.0
  endloop
endfacet
facet normal 0.0 0.0 -1.0
  outer loop
    vertex 77.7320508075689 0.999999999999996 0.0
    vertex 77.8117333157176 6.76148078402346 0.0
    vertex 77.9318516525781 0.517638090205045 0.0
  endloop
endfacet
facet normal 0.0 0.0 -1.0
  outer loop
    vertex 77.9318516525781 0.517638090205045 0.0
    vertex 77.8117333157176 6.76148078402346 0.0
    vertex 79.5 6.06217782649107 0.0
  endloop
endfacet
facet normal 0.0 0.0 -1.0
  outer loop
    vertex 77.9318516525781 0.517638090205045 0.0
    vertex 79.5 6.06217782649107 0.0
    vertex 78.0 0.0 0.0
  endloop
endfacet
facet normal 0.0 0.0 -1.0
  outer loop
    vertex 78.0 0.0 0.0
    vertex 79.5 6.06217782649107 0.0
    vertex 79.5 -6.06217782649106 0.0
  endloop
endfacet
facet normal 0.0 0.0 -1.0
  outer loop
    vertex 79.5 -6.06217782649106 0.0
    vertex 79.5 6.06217782649107 0.0
    vertex 80.9497474683058 -4.94974746830582 0.0
  endloop
endfacet
facet normal 0.0 0.0 -1.0
  outer loop
    vertex 80.9497474683058 -4.94974746830582 0.0
    vertex 79.5 6.06217782649107 0.0
    vertex 80.9497474683058 4.94974746830583 0.0
  endloop
endfacet
facet normal 0.0 0.0 -1.0
  outer loop
    vertex 80.9497474683058 -4.94974746830582 0.0
    vertex 80.9497474683058 4.94974746830583 0.0
    vertex 82.0621778264911 3.49999999999999 0.0
  endloop
endfacet
facet normal 0.0 0.0 -1.0
  outer loop
    vertex 80.9497474683058 -4.94974746830582 0.0
    vertex 82.0621778264911 3.49999999999999 0.0
    vertex 82.062177826491 -3.49999999999999 0.0
  endloop
endfacet
facet normal 0.0 0.0 -1.0
  outer loop
    vertex 82.062177826491 -3.49999999999999 0.0
    vertex 82.0621778264911 3.49999999999999 0.0
    vertex 82.7614807840235 -1.81173331571765 0.0
  endloop
endfacet
facet normal 0.0 0.0 -1.0
  outer loop
    vertex 82.7614807840235 -1.81173331571765 0.0
    vertex 82.0621778264911 3.49999999999999 0.0
    vertex 82.7614807840235 1.81173331571763 0.0
  endloop
endfacet
facet normal 0.0 0.0 -1.0
  outer loop
    vertex 82.7614807840235 -1.81173331571765 0.0
    vertex 82.7614807840235 1.81173331571763 0.0
    vertex 83.0 0.0 0.0
  endloop
endfacet
facet normal 0.0 0.0 -1.0
  outer loop
    vertex 74.0 0.0 0.0
    vertex 69.2385192159766 -1.81173331571764 0.0
    vertex 69.0 0.0 0.0
  endloop
endfacet
facet normal 0.0 0.0 -1.0
  outer loop
    vertex 69.2385192159766 -1.81173331571764 0.0
    vertex 74.0 0.0 0.0
    vertex 69.9378221735089 -3.49999999999999 0.0
  endloop
endfacet
facet normal 0.0 0.0 -1.0
  outer loop
    vertex 69.9378221735089 -3.49999999999999 0.0
    vertex 74.0 0.0 0.0
    vertex 71.0502525316942 -4.94974746830582 0.0
  endloop
endfacet
facet normal 0.0 0.0 -1.0
  outer loop
    vertex 71.0502525316942 -4.94974746830582 0.0
    vertex 74.0 0.0 0.0
    vertex 72.5 -6.06217782649106 0.0
  endloop
endfacet
facet normal 0.0 0.0 -1.0
  outer loop
    vertex 72.5 -6.06217782649106 0.0
    vertex 74.0 0.0 0.0
    vertex 74.1882666842824 -6.76148078402347 0.0
  endloop
endfacet
facet normal 0.0 0.0 -1.0
  outer loop
    vertex 74.1882666842824 -6.76148078402347 0.0
    vertex 74.0 0.0 0.0
    vertex 74.0681483474219 -0.517638090205034 0.0
  endloop
endfacet
facet normal 0.0 0.0 -1.0
  outer loop
    vertex 74.1882666842824 -6.76148078402347 0.0
    vertex 74.0681483474219 -0.517638090205034 0.0
    vertex 74.2679491924311 -0.999999999999998 0.0
  endloop
endfacet
facet normal 0.0 0.0 -1.0
  outer loop
    vertex 74.1882666842824 -6.76148078402347 0.0
    vertex 74.2679491924311 -0.999999999999998 0.0
    vertex 76.0 -6.99999999999999 0.0
  endloop
endfacet
facet normal 0.0 0.0 -1.0
  outer loop
    vertex 76.0 -6.99999999999999 0.0
    vertex 74.2679491924311 -0.999999999999998 0.0
    vertex 74.5857864376269 -1.41421356237309 0.0
  endloop
endfacet
facet normal 0.0 0.0 -1.0
  outer loop
    vertex 76.0 -6.99999999999999 0.0
    vertex 74.5857864376269 -1.41421356237309 0.0
    vertex 75.0 -1.73205080756888 0.0
  endloop
endfacet
facet normal 0.0 0.0 -1.0
  outer loop
    vertex 76.0 -6.99999999999999 0.0
    vertex 75.0 -1.73205080756888 0.0
    vertex 75.482361909795 -1.93185165257813 0.0
  endloop
endfacet
facet normal 0.0 0.0 -1.0
  outer loop
    vertex 76.0 -6.99999999999999 0.0
    vertex 75.482361909795 -1.93185165257813 0.0
    vertex 76.0 -2.0 0.0
  endloop
endfacet
facet normal 0.0 0.0 -1.0
  outer loop
    vertex 76.0 -6.99999999999999 0.0
    vertex 76.0 -2.0 0.0
    vertex 76.517638090205 -1.93185165257813 0.0
  endloop
endfacet
facet normal 0.0 0.0 -1.0
  outer loop
    vertex 76.0 -6.99999999999999 0.0
    vertex 76.517638090205 -1.93185165257813 0.0
    vertex 77.8117333157176 -6.76148078402347 0.0
  endloop
endfacet
facet normal 0.0 0.0 -1.0
  outer loop
    vertex 77.8117333157176 -6.76148078402347 0.0
    vertex 76.517638090205 -1.93185165257813 0.0
    vertex 77.0 -1.73205080756888 0.0
  endloop
endfacet
facet normal 0.0 0.0 -1.0
  outer loop
    vertex 77.8117333157176 -6.76148078402347 0.0
    vertex 77.0 -1.73205080756888 0.0
    vertex 77.4142135623731 -1.41421356237309 0.0
  endloop
endfacet
facet normal 0.0 0.0 -1.0
  outer loop
    vertex 77.8117333157176 -6.76148078402347 0.0
    vertex 77.4142135623731 -1.41421356237309 0.0
    vertex 77.7320508075689 -0.999999999999998 0.0
  endloop
endfacet
facet normal 0.0 0.0 -1.0
  outer loop
    vertex 77.8117333157176 -6.76148078402347 0.0
    vertex 77.7320508075689 -0.999999999999998 0.0
    vertex 77.9318516525781 -0.517638090205034 0.0
  endloop
endfacet
facet normal 0.0 0.0 -1.0
  outer loop
    vertex 77.8117333157176 -6.76148078402347 0.0
    vertex 77.9318516525781 -0.517638090205034 0.0
    vertex 79.5 -6.06217782649106 0.0
  endloop
endfacet
facet normal 0.0 0.0 -1.0
  outer loop
    vertex 79.5 -6.06217782649106 0.0
    vertex 77.9318516525781 -0.517638090205034 0.0
    vertex 78.0 0.0 0.0
  endloop
endfacet
facet normal 0.0 0.0 -1.0
  outer loop
    vertex -1.93185165257814 0.517638090205042 13.0
    vertex -1.93185165257814 -0.517638090205041 13.0
    vertex -2.0 2.44929359829471e-16 13.0
  endloop
endfacet
facet normal 0.0 0.0 -1.0
  outer loop
    vertex -1.93185165257814 -0.517638090205041 13.0
    vertex -1.93185165257814 0.517638090205042 13.0
    vertex -1.73205080756888 -0.999999999999999 13.0
  endloop
endfacet
facet normal 0.0 0.0 -1.0
  outer loop
    vertex -1.73205080756888 -0.999999999999999 13.0
    vertex -1.93185165257814 0.517638090205042 13.0
    vertex -1.73205080756888 1.0 13.0
  endloop
endfacet
facet normal 0.0 0.0 -1.0
  outer loop
    vertex -1.73205080756888 -0.999999999999999 13.0
    vertex -1.73205080756888 1.0 13.0
    vertex -1.4142135623731 -1.41421356237309 13.0
  endloop
endfacet
facet normal 0.0 0.0 -1.0
  outer loop
    vertex -1.4142135623731 -1.41421356237309 13.0
    vertex -1.73205080756888 1.0 13.0
    vertex -1.41421356237309 1.4142135623731 13.0
  endloop
endfacet
facet normal 0.0 0.0 -1.0
  outer loop
    vertex -1.4142135623731 -1.41421356237309 13.0
    vertex -1.41421356237309 1.4142135623731 13.0
    vertex -1.0 -1.73205080756888 13.0
  endloop
endfacet
facet normal 0.0 0.0 -1.0
  outer loop
    vertex -1.0 -1.73205080756888 13.0
    vertex -1.41421356237309 1.4142135623731 13.0
    vertex -0.999999999999999 1.73205080756888 13.0
  endloop
endfacet
facet normal 0.0 0.0 -1.0
  outer loop
    vertex -1.0 -1.73205080756888 13.0
    vertex -0.999999999999999 1.73205080756888 13.0
    vertex -0.517638090205043 -1.93185165257814 13.0
  endloop
endfacet
facet normal 0.0 0.0 -1.0
  outer loop
    vertex -0.517638090205043 -1.93185165257814 13.0
    vertex -0.999999999999999 1.73205080756888 13.0
    vertex -0.517638090205041 1.93185165257814 13.0
  endloop
endfacet
facet normal 0.0 0.0 -1.0
  outer loop
    vertex -0.517638090205043 -1.93185165257814 13.0
    vertex -0.517638090205041 1.93185165257814 13.0
    vertex -3.67394039744206e-16 -2.0 13.0
  endloop
endfacet
facet normal 0.0 0.0 -1.0
  outer loop
    vertex -3.67394039744206e-16 -2.0 13.0
    vertex -0.517638090205041 1.93185165257814 13.0
    vertex 1.22464679914735e-16 2.0 13.0
  endloop
endfacet
facet normal 0.0 0.0 -1.0
  outer loop
    vertex -3.67394039744206e-16 -2.0 13.0
    vertex 1.22464679914735e-16 2.0 13.0
    vertex 0.51763809020504 -1.93185165257814 13.0
  endloop
endfacet
facet normal 0.0 0.0 -1.0
  outer loop
    vertex 0.51763809020504 -1.93185165257814 13.0
    vertex 1.22464679914735e-16 2.0 13.0
    vertex 0.517638090205042 1.93185165257814 13.0
  endloop
endfacet
facet normal 0.0 0.0 -1.0
  outer loop
    vertex 0.51763809020504 -1.93185165257814 13.0
    vertex 0.517638090205042 1.93185165257814 13.0
    vertex 0.999999999999998 -1.73205080756888 13.0
  endloop
endfacet
facet normal 0.0 0.0 -1.0
  outer loop
    vertex 0.999999999999998 -1.73205080756888 13.0
    vertex 0.517638090205042 1.93185165257814 13.0
    vertex 1.0 1.73205080756888 13.0
  endloop
endfacet
facet normal 0.0 0.0 -1.0
  outer loop
    vertex 0.999999999999998 -1.73205080756888 13.0
    vertex 1.0 1.73205080756888 13.0
    vertex 1.41421356237309 -1.4142135623731 13.0
  endloop
endfacet
facet normal 0.0 0.0 -1.0
  outer loop
    vertex 1.41421356237309 -1.4142135623731 13.0
    vertex 1.0 1.73205080756888 13.0
    vertex 1.41421356237309 1.41421356237309 13.0
  endloop
endfacet
facet normal 0.0 0.0 -1.0
  outer loop
    vertex 1.41421356237309 -1.4142135623731 13.0
    vertex 1.41421356237309 1.41421356237309 13.0
    vertex 1.73205080756888 -1.0 13.0
  endloop
endfacet
facet normal 0.0 0.0 -1.0
  outer loop
    vertex 1.73205080756888 -1.0 13.0
    vertex 1.41421356237309 1.41421356237309 13.0
    vertex 1.73205080756888 1.0 13.0
  endloop
endfacet
facet normal 0.0 0.0 -1.0
  outer loop
    vertex 1.73205080756888 -1.0 13.0
    vertex 1.73205080756888 1.0 13.0
    vertex 1.93185165257814 -0.517638090205043 13.0
  endloop
endfacet
facet normal 0.0 0.0 -1.0
  outer loop
    vertex 1.93185165257814 -0.517638090205043 13.0
    vertex 1.73205080756888 1.0 13.0
    vertex 1.93185165257814 0.517638090205041 13.0
  endloop
endfacet
facet normal 0.0 0.0 -1.0
  outer loop
    vertex 1.93185165257814 -0.517638090205043 13.0
    vertex 1.93185165257814 0.517638090205041 13.0
    vertex 2.0 0.0 13.0
  endloop
endfacet
facet normal 5.34666593738814e-17 -1.0 0.0
  outer loop
    vertex 1.22464679914735e-16 2.0 13.0
    vertex -0.517638090205041 1.93185165257814 0.0
    vertex 1.22464679914735e-16 2.0 0.0
  endloop
endfacet
facet normal 0.25881904510252 -0.965925826289068 0.0
  outer loop
    vertex -0.517638090205041 1.93185165257814 0.0
    vertex 1.22464679914735e-16 2.0 13.0
    vertex -0.517638090205041 1.93185165257814 13.0
  endloop
endfacet
facet normal -0.258819045102521 -0.965925826289068 0.0
  outer loop
    vertex 0.517638090205042 1.93185165257814 13.0
    vertex 1.22464679914735e-16 2.0 0.0
    vertex 0.517638090205042 1.93185165257814 0.0
  endloop
endfacet
facet normal 5.34666593738814e-17 -1.0 0.0
  outer loop
    vertex 1.22464679914735e-16 2.0 0.0
    vertex 0.517638090205042 1.93185165257814 13.0
    vertex 1.22464679914735e-16 2.0 13.0
  endloop
endfacet
facet normal -0.5 -0.866025403784439 0.0
  outer loop
    vertex 1.0 1.73205080756888 13.0
    vertex 0.517638090205042 1.93185165257814 0.0
    vertex 1.0 1.73205080756888 0.0
  endloop
endfacet
facet normal -0.258819045102521 -0.965925826289068 0.0
  outer loop
    vertex 0.517638090205042 1.93185165257814 0.0
    vertex 1.0 1.73205080756888 13.0
    vertex 0.517638090205042 1.93185165257814 13.0
  endloop
endfacet
facet normal -0.707106781186548 -0.707106781186547 0.0
  outer loop
    vertex 1.41421356237309 1.41421356237309 13.0
    vertex 1.0 1.73205080756888 0.0
    vertex 1.41421356237309 1.41421356237309 0.0
  endloop
endfacet
facet normal -0.5 -0.866025403784439 0.0
  outer loop
    vertex 1.0 1.73205080756888 0.0
    vertex 1.41421356237309 1.41421356237309 13.0
    vertex 1.0 1.73205080756888 13.0
  endloop
endfacet
facet normal -0.707106781186548 -0.707106781186547 0.0
  outer loop
    vertex 1.41421356237309 1.41421356237309 13.0
    vertex 1.73205080756888 1.0 0.0
    vertex 1.73205080756888 1.0 13.0
  endloop
endfacet
facet normal -0.866025403784439 -0.5 0.0
  outer loop
    vertex 1.73205080756888 1.0 0.0
    vertex 1.41421356237309 1.41421356237309 13.0
    vertex 1.41421356237309 1.41421356237309 0.0
  endloop
endfacet
facet normal -0.866025403784439 -0.5 0.0
  outer loop
    vertex 1.73205080756888 1.0 13.0
    vertex 1.93185165257814 0.517638090205041 0.0
    vertex 1.93185165257814 0.517638090205041 13.0
  endloop
endfacet
facet normal -0.965925826289068 -0.258819045102521 0.0
  outer loop
    vertex 1.93185165257814 0.517638090205041 0.0
    vertex 1.73205080756888 1.0 13.0
    vertex 1.73205080756888 1.0 0.0
  endloop
endfacet
facet normal -0.965925826289068 -0.258819045102521 0.0
  outer loop
    vertex 1.93185165257814 0.517638090205041 13.0
    vertex 2.0 0.0 0.0
    vertex 2.0 0.0 13.0
  endloop
endfacet
facet normal -1.0 1.42577758330351e-16 0.0
  outer loop
    vertex 2.0 0.0 0.0
    vertex 1.93185165257814 0.517638090205041 13.0
    vertex 1.93185165257814 0.517638090205041 0.0
  endloop
endfacet
facet normal -1.0 1.42577758330351e-16 0.0
  outer loop
    vertex 2.0 0.0 13.0
    vertex 1.93185165257814 -0.517638090205043 0.0
    vertex 1.93185165257814 -0.517638090205043 13.0
  endloop
endfacet
facet normal -0.965925826289068 0.258819045102521 0.0
  outer loop
    vertex 1.93185165257814 -0.517638090205043 0.0
    vertex 2.0 0.0 13.0
    vertex 2.0 0.0 0.0
  endloop
endfacet
facet normal -0.965925826289068 0.258819045102521 0.0
  outer loop
    vertex 1.93185165257814 -0.517638090205043 13.0
    vertex 1.73205080756888 -1.0 0.0
    vertex 1.73205080756888 -1.0 13.0
  endloop
endfacet
facet normal -0.866025403784439 0.5 0.0
  outer loop
    vertex 1.73205080756888 -1.0 0.0
    vertex 1.93185165257814 -0.517638090205043 13.0
    vertex 1.93185165257814 -0.517638090205043 0.0
  endloop
endfacet
facet normal -0.866025403784439 0.5 0.0
  outer loop
    vertex 1.73205080756888 -1.0 13.0
    vertex 1.41421356237309 -1.4142135623731 0.0
    vertex 1.41421356237309 -1.4142135623731 13.0
  endloop
endfacet
facet normal -0.707106781186547 0.707106781186548 0.0
  outer loop
    vertex 1.41421356237309 -1.4142135623731 0.0
    vertex 1.73205080756888 -1.0 13.0
    vertex 1.73205080756888 -1.0 0.0
  endloop
endfacet
facet normal -0.499999999999999 0.866025403784439 0.0
  outer loop
    vertex 0.999999999999998 -1.73205080756888 13.0
    vertex 1.41421356237309 -1.4142135623731 0.0
    vertex 0.999999999999998 -1.73205080756888 0.0
  endloop
endfacet
facet normal -0.707106781186547 0.707106781186548 0.0
  outer loop
    vertex 1.41421356237309 -1.4142135623731 0.0
    vertex 0.999999999999998 -1.73205080756888 13.0
    vertex 1.41421356237309 -1.4142135623731 13.0
  endloop
endfacet
facet normal -0.25881904510252 0.965925826289068 0.0
  outer loop
    vertex 0.51763809020504 -1.93185165257814 13.0
    vertex 0.999999999999998 -1.73205080756888 0.0
    vertex 0.51763809020504 -1.93185165257814 0.0
  endloop
endfacet
facet normal -0.499999999999999 0.866025403784439 0.0
  outer loop
    vertex 0.999999999999998 -1.73205080756888 0.0
    vertex 0.51763809020504 -1.93185165257814 13.0
    vertex 0.999999999999998 -1.73205080756888 13.0
  endloop
endfacet
facet normal 4.63377714573639e-16 1.0 0.0
  outer loop
    vertex -3.67394039744206e-16 -2.0 13.0
    vertex 0.51763809020504 -1.93185165257814 0.0
    vertex -3.67394039744206e-16 -2.0 0.0
  endloop
endfacet
facet normal -0.25881904510252 0.965925826289068 0.0
  outer loop
    vertex 0.51763809020504 -1.93185165257814 0.0
    vertex -3.67394039744206e-16 -2.0 13.0
    vertex 0.51763809020504 -1.93185165257814 13.0
  endloop
endfacet
facet normal 0.258819045102521 0.965925826289068 0.0
  outer loop
    vertex -0.517638090205043 -1.93185165257814 13.0
    vertex -3.67394039744206e-16 -2.0 0.0
    vertex -0.517638090205043 -1.93185165257814 0.0
  endloop
endfacet
facet normal 4.63377714573639e-16 1.0 0.0
  outer loop
    vertex -3.67394039744206e-16 -2.0 0.0
    vertex -0.517638090205043 -1.93185165257814 13.0
    vertex -3.67394039744206e-16 -2.0 13.0
  endloop
endfacet
facet normal 0.5 0.866025403784438 0.0
  outer loop
    vertex -1.0 -1.73205080756888 13.0
    vertex -0.517638090205043 -1.93185165257814 0.0
    vertex -1.0 -1.73205080756888 0.0
  endloop
endfacet
facet normal 0.258819045102521 0.965925826289068 0.0
  outer loop
    vertex -0.517638090205043 -1.93185165257814 0.0
    vertex -1.0 -1.73205080756888 13.0
    vertex -0.517638090205043 -1.93185165257814 13.0
  endloop
endfacet
facet normal 0.707106781186548 0.707106781186547 0.0
  outer loop
    vertex -1.4142135623731 -1.41421356237309 13.0
    vertex -1.0 -1.73205080756888 0.0
    vertex -1.4142135623731 -1.41421356237309 0.0
  endloop
endfacet
facet normal 0.5 0.866025403784438 0.0
  outer loop
    vertex -1.0 -1.73205080756888 0.0
    vertex -1.4142135623731 -1.41421356237309 13.0
    vertex -1.0 -1.73205080756888 13.0
  endloop
endfacet
facet normal 0.866025403784439 0.5 0.0
  outer loop
    vertex -1.73205080756888 -0.999999999999999 0.0
    vertex -1.4142135623731 -1.41421356237309 13.0
    vertex -1.4142135623731 -1.41421356237309 0.0
  endloop
endfacet
facet normal 0.707106781186548 0.707106781186547 0.0
  outer loop
    vertex -1.4142135623731 -1.41421356237309 13.0
    vertex -1.73205080756888 -0.999999999999999 0.0
    vertex -1.73205080756888 -0.999999999999999 13.0
  endloop
endfacet
facet normal 0.965925826289068 0.25881904510252 0.0
  outer loop
    vertex -1.93185165257814 -0.517638090205041 0.0
    vertex -1.73205080756888 -0.999999999999999 13.0
    vertex -1.73205080756888 -0.999999999999999 0.0
  endloop
endfacet
facet normal 0.866025403784439 0.5 0.0
  outer loop
    vertex -1.73205080756888 -0.999999999999999 13.0
    vertex -1.93185165257814 -0.517638090205041 0.0
    vertex -1.93185165257814 -0.517638090205041 13.0
  endloop
endfacet
facet normal 1.0 -2.22777747391173e-16 0.0
  outer loop
    vertex -2.0 2.44929359829471e-16 0.0
    vertex -1.93185165257814 -0.517638090205041 13.0
    vertex -1.93185165257814 -0.517638090205041 0.0
  endloop
endfacet
facet normal 0.965925826289068 0.25881904510252 0.0
  outer loop
    vertex -1.93185165257814 -0.517638090205041 13.0
    vertex -2.0 2.44929359829471e-16 0.0
    vertex -2.0 2.44929359829471e-16 13.0
  endloop
endfacet
facet normal 0.965925826289068 -0.258819045102521 0.0
  outer loop
    vertex -1.93185165257814 0.517638090205042 0.0
    vertex -2.0 2.44929359829471e-16 13.0
    vertex -2.0 2.44929359829471e-16 0.0
  endloop
endfacet
facet normal 1.0 -2.22777747391173e-16 0.0
  outer loop
    vertex -2.0 2.44929359829471e-16 13.0
    vertex -1.93185165257814 0.517638090205042 0.0
    vertex -1.93185165257814 0.517638090205042 13.0
  endloop
endfacet
facet normal 0.866025403784439 -0.5 0.0
  outer loop
    vertex -1.73205080756888 1.0 0.0
    vertex -1.93185165257814 0.517638090205042 13.0
    vertex -1.93185165257814 0.517638090205042 0.0
  endloop
endfacet
facet normal 0.965925826289068 -0.258819045102521 0.0
  outer loop
    vertex -1.93185165257814 0.517638090205042 13.0
    vertex -1.73205080756888 1.0 0.0
    vertex -1.73205080756888 1.0 13.0
  endloop
endfacet
facet normal 0.707106781186547 -0.707106781186547 0.0
  outer loop
    vertex -1.41421356237309 1.4142135623731 0.0
    vertex -1.73205080756888 1.0 13.0
    vertex -1.73205080756888 1.0 0.0
  endloop
endfacet
facet normal 0.866025403784439 -0.5 0.0
  outer loop
    vertex -1.73205080756888 1.0 13.0
    vertex -1.41421356237309 1.4142135623731 0.0
    vertex -1.41421356237309 1.4142135623731 13.0
  endloop
endfacet
facet normal 0.5 -0.866025403784439 0.0
  outer loop
    vertex -0.999999999999999 1.73205080756888 13.0
    vertex -1.41421356237309 1.4142135623731 0.0
    vertex -0.999999999999999 1.73205080756888 0.0
  endloop
endfacet
facet normal 0.707106781186547 -0.707106781186547 0.0
  outer loop
    vertex -1.41421356237309 1.4142135623731 0.0
    vertex -0.999999999999999 1.73205080756888 13.0
    vertex -1.41421356237309 1.4142135623731 13.0
  endloop
endfacet
facet normal 0.25881904510252 -0.965925826289068 0.0
  outer loop
    vertex -0.517638090205041 1.93185165257814 13.0
    vertex -0.999999999999999 1.73205080756888 0.0
    vertex -0.517638090205041 1.93185165257814 0.0
  endloop
endfacet
facet normal 0.5 -0.866025403784439 0.0
  outer loop
    vertex -0.999999999999999 1.73205080756888 0.0
    vertex -0.517638090205041 1.93185165257814 13.0
    vertex -0.999999999999999 1.73205080756888 13.0
  endloop
endfacet
facet normal 0.0 0.0 -1.0
  outer loop
    vertex 74.0681483474219 0.517638090205045 13.0
    vertex 74.0681483474219 -0.517638090205034 13.0
    vertex 74.0 0.0 13.0
  endloop
endfacet
facet normal 0.0 0.0 -1.0
  outer loop
    vertex 74.0681483474219 -0.517638090205034 13.0
    vertex 74.0681483474219 0.517638090205045 13.0
    vertex 74.2679491924311 0.999999999999996 13.0
  endloop
endfacet
facet normal 0.0 0.0 -1.0
  outer loop
    vertex 74.0681483474219 -0.517638090205034 13.0
    vertex 74.2679491924311 0.999999999999996 13.0
    vertex 74.2679491924311 -0.999999999999998 13.0
  endloop
endfacet
facet normal 0.0 0.0 -1.0
  outer loop
    vertex 74.2679491924311 -0.999999999999998 13.0
    vertex 74.2679491924311 0.999999999999996 13.0
    vertex 74.5857864376269 1.41421356237309 13.0
  endloop
endfacet
facet normal 0.0 0.0 -1.0
  outer loop
    vertex 74.2679491924311 -0.999999999999998 13.0
    vertex 74.5857864376269 1.41421356237309 13.0
    vertex 74.5857864376269 -1.41421356237309 13.0
  endloop
endfacet
facet normal 0.0 0.0 -1.0
  outer loop
    vertex 74.5857864376269 -1.41421356237309 13.0
    vertex 74.5857864376269 1.41421356237309 13.0
    vertex 75.0 1.73205080756888 13.0
  endloop
endfacet
facet normal 0.0 0.0 -1.0
  outer loop
    vertex 74.5857864376269 -1.41421356237309 13.0
    vertex 75.0 1.73205080756888 13.0
    vertex 75.0 -1.73205080756888 13.0
  endloop
endfacet
facet normal 0.0 0.0 -1.0
  outer loop
    vertex 75.0 -1.73205080756888 13.0
    vertex 75.0 1.73205080756888 13.0
    vertex 75.482361909795 1.93185165257813 13.0
  endloop
endfacet
facet normal 0.0 0.0 -1.0
  outer loop
    vertex 75.0 -1.73205080756888 13.0
    vertex 75.482361909795 1.93185165257813 13.0
    vertex 75.482361909795 -1.93185165257813 13.0
  endloop
endfacet
facet normal 0.0 0.0 -1.0
  outer loop
    vertex 75.482361909795 -1.93185165257813 13.0
    vertex 75.482361909795 1.93185165257813 13.0
    vertex 76.0 1.99999999999999 13.0
  endloop
endfacet
facet normal 0.0 0.0 -1.0
  outer loop
    vertex 75.482361909795 -1.93185165257813 13.0
    vertex 76.0 1.99999999999999 13.0
    vertex 76.0 -2.0 13.0
  endloop
endfacet
facet normal 0.0 0.0 -1.0
  outer loop
    vertex 76.0 -2.0 13.0
    vertex 76.0 1.99999999999999 13.0
    vertex 76.517638090205 1.93185165257813 13.0
  endloop
endfacet
facet normal 0.0 0.0 -1.0
  outer loop
    vertex 76.0 -2.0 13.0
    vertex 76.517638090205 1.93185165257813 13.0
    vertex 76.517638090205 -1.93185165257813 13.0
  endloop
endfacet
facet normal 0.0 0.0 -1.0
  outer loop
    vertex 76.517638090205 -1.93185165257813 13.0
    vertex 76.517638090205 1.93185165257813 13.0
    vertex 77.0 1.73205080756888 13.0
  endloop
endfacet
facet normal 0.0 0.0 -1.0
  outer loop
    vertex 76.517638090205 -1.93185165257813 13.0
    vertex 77.0 1.73205080756888 13.0
    vertex 77.0 -1.73205080756888 13.0
  endloop
endfacet
facet normal 0.0 0.0 -1.0
  outer loop
    vertex 77.0 -1.73205080756888 13.0
    vertex 77.0 1.73205080756888 13.0
    vertex 77.4142135623731 1.41421356237309 13.0
  endloop
endfacet
facet normal 0.0 0.0 -1.0
  outer loop
    vertex 77.0 -1.73205080756888 13.0
    vertex 77.4142135623731 1.41421356237309 13.0
    vertex 77.4142135623731 -1.41421356237309 13.0
  endloop
endfacet
facet normal 0.0 0.0 -1.0
  outer loop
    vertex 77.4142135623731 -1.41421356237309 13.0
    vertex 77.4142135623731 1.41421356237309 13.0
    vertex 77.7320508075689 0.999999999999996 13.0
  endloop
endfacet
facet normal 0.0 0.0 -1.0
  outer loop
    vertex 77.4142135623731 -1.41421356237309 13.0
    vertex 77.7320508075689 0.999999999999996 13.0
    vertex 77.7320508075689 -0.999999999999998 13.0
  endloop
endfacet
facet normal 0.0 0.0 -1.0
  outer loop
    vertex 77.7320508075689 -0.999999999999998 13.0
    vertex 77.7320508075689 0.999999999999996 13.0
    vertex 77.9318516525781 0.517638090205045 13.0
  endloop
endfacet
facet normal 0.0 0.0 -1.0
  outer loop
    vertex 77.7320508075689 -0.999999999999998 13.0
    vertex 77.9318516525781 0.517638090205045 13.0
    vertex 77.9318516525781 -0.517638090205034 13.0
  endloop
endfacet
facet normal 0.0 0.0 -1.0
  outer loop
    vertex 77.9318516525781 -0.517638090205034 13.0
    vertex 77.9318516525781 0.517638090205045 13.0
    vertex 78.0 0.0 13.0
  endloop
endfacet
facet normal 1.0 1.42577758330351e-15 0.0
  outer loop
    vertex 74.0 0.0 0.0
    vertex 74.0681483474219 -0.517638090205034 13.0
    vertex 74.0681483474219 -0.517638090205034 0.0
  endloop
endfacet
facet normal 0.965925826289067 0.258819045102526 0.0
  outer loop
    vertex 74.0681483474219 -0.517638090205034 13.0
    vertex 74.0 0.0 0.0
    vertex 74.0 0.0 13.0
  endloop
endfacet
facet normal 0.965925826289067 0.258819045102526 0.0
  outer loop
    vertex 74.0681483474219 -0.517638090205034 0.0
    vertex 74.2679491924311 -0.999999999999998 13.0
    vertex 74.2679491924311 -0.999999999999998 0.0
  endloop
endfacet
facet normal 0.866025403784445 0.499999999999988 0.0
  outer loop
    vertex 74.2679491924311 -0.999999999999998 13.0
    vertex 74.0681483474219 -0.517638090205034 0.0
    vertex 74.0681483474219 -0.517638090205034 13.0
  endloop
endfacet
facet normal -0.258819045102512 0.965925826289071 0.0
  outer loop
    vertex 76.517638090205 -1.93185165257813 13.0
    vertex 77.0 -1.73205080756888 0.0
    vertex 76.517638090205 -1.93185165257813 0.0
  endloop
endfacet
facet normal -0.499999999999995 0.866025403784442 0.0
  outer loop
    vertex 77.0 -1.73205080756888 0.0
    vertex 76.517638090205 -1.93185165257813 13.0
    vertex 77.0 -1.73205080756888 13.0
  endloop
endfacet
facet normal -0.866025403784443 -0.499999999999993 0.0
  outer loop
    vertex 77.7320508075689 0.999999999999996 13.0
    vertex 77.9318516525781 0.517638090205045 0.0
    vertex 77.9318516525781 0.517638090205045 13.0
  endloop
endfacet
facet normal -0.965925826289066 -0.258819045102529 0.0
  outer loop
    vertex 77.9318516525781 0.517638090205045 0.0
    vertex 77.7320508075689 0.999999999999996 13.0
    vertex 77.7320508075689 0.999999999999996 0.0
  endloop
endfacet
facet normal 0.965925826289066 -0.258819045102529 0.0
  outer loop
    vertex 74.0681483474219 0.517638090205045 0.0
    vertex 74.0 0.0 13.0
    vertex 74.0 0.0 0.0
  endloop
endfacet
facet normal 1.0 1.42577758330351e-15 0.0
  outer loop
    vertex 74.0 0.0 13.0
    vertex 74.0681483474219 0.517638090205045 0.0
    vertex 74.0681483474219 0.517638090205045 13.0
  endloop
endfacet
facet normal -0.707106781186555 -0.70710678118654 0.0
  outer loop
    vertex 77.4142135623731 1.41421356237309 13.0
    vertex 77.7320508075689 0.999999999999996 0.0
    vertex 77.7320508075689 0.999999999999996 13.0
  endloop
endfacet
facet normal -0.866025403784443 -0.499999999999993 0.0
  outer loop
    vertex 77.7320508075689 0.999999999999996 0.0
    vertex 77.4142135623731 1.41421356237309 13.0
    vertex 77.4142135623731 1.41421356237309 0.0
  endloop
endfacet
facet normal -0.707106781186555 -0.70710678118654 0.0
  outer loop
    vertex 77.4142135623731 1.41421356237309 13.0
    vertex 77.0 1.73205080756888 0.0
    vertex 77.4142135623731 1.41421356237309 0.0
  endloop
endfacet
facet normal -0.499999999999994 -0.866025403784442 0.0
  outer loop
    vertex 77.0 1.73205080756888 0.0
    vertex 77.4142135623731 1.41421356237309 13.0
    vertex 77.0 1.73205080756888 13.0
  endloop
endfacet
facet normal -0.965925826289067 0.258819045102526 0.0
  outer loop
    vertex 77.9318516525781 -0.517638090205034 13.0
    vertex 77.7320508075689 -0.999999999999998 0.0
    vertex 77.7320508075689 -0.999999999999998 13.0
  endloop
endfacet
facet normal -0.866025403784445 0.499999999999988 0.0
  outer loop
    vertex 77.7320508075689 -0.999999999999998 0.0
    vertex 77.9318516525781 -0.517638090205034 13.0
    vertex 77.9318516525781 -0.517638090205034 0.0
  endloop
endfacet
facet normal 0.499999999999994 -0.866025403784442 0.0
  outer loop
    vertex 75.0 1.73205080756888 13.0
    vertex 74.5857864376269 1.41421356237309 0.0
    vertex 75.0 1.73205080756888 0.0
  endloop
endfacet
facet normal 0.707106781186555 -0.70710678118654 0.0
  outer loop
    vertex 74.5857864376269 1.41421356237309 0.0
    vertex 75.0 1.73205080756888 13.0
    vertex 74.5857864376269 1.41421356237309 13.0
  endloop
endfacet
facet normal 0.258819045102513 -0.96592582628907 0.0
  outer loop
    vertex 75.482361909795 1.93185165257813 13.0
    vertex 75.0 1.73205080756888 0.0
    vertex 75.482361909795 1.93185165257813 0.0
  endloop
endfacet
facet normal 0.499999999999994 -0.866025403784442 0.0
  outer loop
    vertex 75.0 1.73205080756888 0.0
    vertex 75.482361909795 1.93185165257813 13.0
    vertex 75.0 1.73205080756888 13.0
  endloop
endfacet
facet normal -0.499999999999995 0.866025403784442 0.0
  outer loop
    vertex 77.0 -1.73205080756888 13.0
    vertex 77.4142135623731 -1.41421356237309 0.0
    vertex 77.0 -1.73205080756888 0.0
  endloop
endfacet
facet normal -0.707106781186557 0.707106781186538 0.0
  outer loop
    vertex 77.4142135623731 -1.41421356237309 0.0
    vertex 77.0 -1.73205080756888 13.0
    vertex 77.4142135623731 -1.41421356237309 13.0
  endloop
endfacet
facet normal -0.866025403784445 0.499999999999988 0.0
  outer loop
    vertex 77.7320508075689 -0.999999999999998 13.0
    vertex 77.4142135623731 -1.41421356237309 0.0
    vertex 77.4142135623731 -1.41421356237309 13.0
  endloop
endfacet
facet normal -0.707106781186557 0.707106781186538 0.0
  outer loop
    vertex 77.4142135623731 -1.41421356237309 0.0
    vertex 77.7320508075689 -0.999999999999998 13.0
    vertex 77.7320508075689 -0.999999999999998 0.0
  endloop
endfacet
facet normal -1.0 1.42577758330351e-15 0.0
  outer loop
    vertex 78.0 0.0 13.0
    vertex 77.9318516525781 -0.517638090205034 0.0
    vertex 77.9318516525781 -0.517638090205034 13.0
  endloop
endfacet
facet normal -0.965925826289067 0.258819045102526 0.0
  outer loop
    vertex 77.9318516525781 -0.517638090205034 0.0
    vertex 78.0 0.0 13.0
    vertex 78.0 0.0 0.0
  endloop
endfacet
facet normal -0.965925826289066 -0.258819045102529 0.0
  outer loop
    vertex 77.9318516525781 0.517638090205045 13.0
    vertex 78.0 0.0 0.0
    vertex 78.0 0.0 13.0
  endloop
endfacet
facet normal -1.0 1.42577758330351e-15 0.0
  outer loop
    vertex 78.0 0.0 0.0
    vertex 77.9318516525781 0.517638090205045 13.0
    vertex 77.9318516525781 0.517638090205045 0.0
  endloop
endfacet
facet normal -0.499999999999994 -0.866025403784442 0.0
  outer loop
    vertex 77.0 1.73205080756888 13.0
    vertex 76.517638090205 1.93185165257813 0.0
    vertex 77.0 1.73205080756888 0.0
  endloop
endfacet
facet normal -0.258819045102513 -0.96592582628907 0.0
  outer loop
    vertex 76.517638090205 1.93185165257813 0.0
    vertex 77.0 1.73205080756888 13.0
    vertex 76.517638090205 1.93185165257813 13.0
  endloop
endfacet
facet normal 0.499999999999995 0.866025403784442 0.0
  outer loop
    vertex 75.0 -1.73205080756888 13.0
    vertex 75.482361909795 -1.93185165257813 0.0
    vertex 75.0 -1.73205080756888 0.0
  endloop
endfacet
facet normal 0.258819045102512 0.965925826289071 0.0
  outer loop
    vertex 75.482361909795 -1.93185165257813 0.0
    vertex 75.0 -1.73205080756888 13.0
    vertex 75.482361909795 -1.93185165257813 13.0
  endloop
endfacet
facet normal 0.866025403784445 0.499999999999988 0.0
  outer loop
    vertex 74.2679491924311 -0.999999999999998 0.0
    vertex 74.5857864376269 -1.41421356237309 13.0
    vertex 74.5857864376269 -1.41421356237309 0.0
  endloop
endfacet
facet normal 0.707106781186557 0.707106781186538 0.0
  outer loop
    vertex 74.5857864376269 -1.41421356237309 13.0
    vertex 74.2679491924311 -0.999999999999998 0.0
    vertex 74.2679491924311 -0.999999999999998 13.0
  endloop
endfacet
facet normal 0.707106781186557 0.707106781186538 0.0
  outer loop
    vertex 74.5857864376269 -1.41421356237309 13.0
    vertex 75.0 -1.73205080756888 0.0
    vertex 74.5857864376269 -1.41421356237309 0.0
  endloop
endfacet
facet normal 0.499999999999995 0.866025403784442 0.0
  outer loop
    vertex 75.0 -1.73205080756888 0.0
    vertex 74.5857864376269 -1.41421356237309 13.0
    vertex 75.0 -1.73205080756888 13.0
  endloop
endfacet
facet normal 0.258819045102512 0.965925826289071 0.0
  outer loop
    vertex 75.482361909795 -1.93185165257813 13.0
    vertex 76.0 -2.0 0.0
    vertex 75.482361909795 -1.93185165257813 0.0
  endloop
endfacet
facet normal 0.0 1.0 0.0
  outer loop
    vertex 76.0 -2.0 0.0
    vertex 75.482361909795 -1.93185165257813 13.0
    vertex 76.0 -2.0 13.0
  endloop
endfacet
facet normal 0.0 1.0 0.0
  outer loop
    vertex 76.0 -2.0 13.0
    vertex 76.517638090205 -1.93185165257813 0.0
    vertex 76.0 -2.0 0.0
  endloop
endfacet
facet normal -0.258819045102512 0.965925826289071 0.0
  outer loop
    vertex 76.517638090205 -1.93185165257813 0.0
    vertex 76.0 -2.0 13.0
    vertex 76.517638090205 -1.93185165257813 13.0
  endloop
endfacet
facet normal 0.707106781186555 -0.70710678118654 0.0
  outer loop
    vertex 74.5857864376269 1.41421356237309 0.0
    vertex 74.2679491924311 0.999999999999996 13.0
    vertex 74.2679491924311 0.999999999999996 0.0
  endloop
endfacet
facet normal 0.866025403784443 -0.499999999999993 0.0
  outer loop
    vertex 74.2679491924311 0.999999999999996 13.0
    vertex 74.5857864376269 1.41421356237309 0.0
    vertex 74.5857864376269 1.41421356237309 13.0
  endloop
endfacet
facet normal 0.866025403784443 -0.499999999999993 0.0
  outer loop
    vertex 74.2679491924311 0.999999999999996 0.0
    vertex 74.0681483474219 0.517638090205045 13.0
    vertex 74.0681483474219 0.517638090205045 0.0
  endloop
endfacet
facet normal 0.965925826289066 -0.258819045102529 0.0
  outer loop
    vertex 74.0681483474219 0.517638090205045 13.0
    vertex 74.2679491924311 0.999999999999996 0.0
    vertex 74.2679491924311 0.999999999999996 13.0
  endloop
endfacet
facet normal -0.258819045102513 -0.96592582628907 0.0
  outer loop
    vertex 76.517638090205 1.93185165257813 13.0
    vertex 76.0 1.99999999999999 0.0
    vertex 76.517638090205 1.93185165257813 0.0
  endloop
endfacet
facet normal 0.0 -1.0 0.0
  outer loop
    vertex 76.0 1.99999999999999 0.0
    vertex 76.517638090205 1.93185165257813 13.0
    vertex 76.0 1.99999999999999 13.0
  endloop
endfacet
facet normal 0.0 -1.0 0.0
  outer loop
    vertex 76.0 1.99999999999999 13.0
    vertex 75.482361909795 1.93185165257813 0.0
    vertex 76.0 1.99999999999999 0.0
  endloop
endfacet
facet normal 0.258819045102513 -0.96592582628907 0.0
  outer loop
    vertex 75.482361909795 1.93185165257813 0.0
    vertex 76.0 1.99999999999999 13.0
    vertex 75.482361909795 1.93185165257813 13.0
  endloop
endfacet
facet normal 0.0 1.0 0.0
  outer loop
    vertex 76.0 6.99999999999998 26.0
    vertex 77.8117333157176 6.76148078402346 0.0
    vertex 76.0 6.99999999999998 0.0
  endloop
endfacet
facet normal 0.258819045102514 0.96592582628907 0.0
  outer loop
    vertex 77.8117333157176 6.76148078402346 0.0
    vertex 76.0 6.99999999999998 26.0
    vertex 77.8117333157176 6.76148078402346 26.0
  endloop
endfacet
facet normal 0.258819045102514 0.96592582628907 0.0
  outer loop
    vertex 77.8117333157176 6.76148078402346 26.0
    vertex 79.5 6.06217782649107 0.0
    vertex 77.8117333157176 6.76148078402346 0.0
  endloop
endfacet
facet normal 0.499999999999997 0.86602540378444 0.0
  outer loop
    vertex 79.5 6.06217782649107 0.0
    vertex 77.8117333157176 6.76148078402346 26.0
    vertex 79.5 6.06217782649107 26.0
  endloop
endfacet
facet normal 0.499999999999997 0.86602540378444 0.0
  outer loop
    vertex 79.5 6.06217782649107 26.0
    vertex 80.9497474683058 4.94974746830583 0.0
    vertex 79.5 6.06217782649107 0.0
  endloop
endfacet
facet normal 0.707106781186548 0.707106781186547 0.0
  outer loop
    vertex 80.9497474683058 4.94974746830583 0.0
    vertex 79.5 6.06217782649107 26.0
    vertex 80.9497474683058 4.94974746830583 26.0
  endloop
endfacet
facet normal 0.707106781186548 0.707106781186547 0.0
  outer loop
    vertex 80.9497474683058 4.94974746830583 0.0
    vertex 82.0621778264911 3.49999999999999 26.0
    vertex 82.0621778264911 3.49999999999999 0.0
  endloop
endfacet
facet normal 0.866025403784443 0.499999999999992 0.0
  outer loop
    vertex 82.0621778264911 3.49999999999999 26.0
    vertex 80.9497474683058 4.94974746830583 0.0
    vertex 80.9497474683058 4.94974746830583 26.0
  endloop
endfacet
facet normal 0.866025403784443 0.499999999999992 0.0
  outer loop
    vertex 82.0621778264911 3.49999999999999 0.0
    vertex 82.7614807840235 1.81173331571763 26.0
    vertex 82.7614807840235 1.81173331571763 0.0
  endloop
endfacet
facet normal 0.96592582628907 0.258819045102516 0.0
  outer loop
    vertex 82.7614807840235 1.81173331571763 26.0
    vertex 82.0621778264911 3.49999999999999 0.0
    vertex 82.0621778264911 3.49999999999999 26.0
  endloop
endfacet
facet normal 0.96592582628907 0.258819045102516 0.0
  outer loop
    vertex 82.7614807840235 1.81173331571763 0.0
    vertex 83.0 0.0 26.0
    vertex 83.0 0.0 0.0
  endloop
endfacet
facet normal 1.0 5.16844373947521e-16 0.0
  outer loop
    vertex 83.0 0.0 26.0
    vertex 82.7614807840235 1.81173331571763 0.0
    vertex 82.7614807840235 1.81173331571763 26.0
  endloop
endfacet
facet normal 1.0 5.16844373947521e-16 0.0
  outer loop
    vertex 83.0 0.0 0.0
    vertex 82.7614807840235 -1.81173331571765 26.0
    vertex 82.7614807840235 -1.81173331571765 0.0
  endloop
endfacet
facet normal 0.965925826289066 -0.258819045102528 0.0
  outer loop
    vertex 82.7614807840235 -1.81173331571765 26.0
    vertex 83.0 0.0 0.0
    vertex 83.0 0.0 26.0
  endloop
endfacet
facet normal 0.965925826289066 -0.258819045102528 0.0
  outer loop
    vertex 82.7614807840235 -1.81173331571765 0.0
    vertex 82.062177826491 -3.49999999999999 26.0
    vertex 82.062177826491 -3.49999999999999 0.0
  endloop
endfacet
facet normal 0.866025403784441 -0.499999999999996 0.0
  outer loop
    vertex 82.062177826491 -3.49999999999999 26.0
    vertex 82.7614807840235 -1.81173331571765 0.0
    vertex 82.7614807840235 -1.81173331571765 26.0
  endloop
endfacet
facet normal 0.866025403784441 -0.499999999999996 0.0
  outer loop
    vertex 82.062177826491 -3.49999999999999 0.0
    vertex 80.9497474683058 -4.94974746830582 26.0
    vertex 80.9497474683058 -4.94974746830582 0.0
  endloop
endfacet
facet normal 0.707106781186547 -0.707106781186547 0.0
  outer loop
    vertex 80.9497474683058 -4.94974746830582 26.0
    vertex 82.062177826491 -3.49999999999999 0.0
    vertex 82.062177826491 -3.49999999999999 26.0
  endloop
endfacet
facet normal 0.707106781186547 -0.707106781186547 0.0
  outer loop
    vertex 80.9497474683058 -4.94974746830582 26.0
    vertex 79.5 -6.06217782649106 0.0
    vertex 80.9497474683058 -4.94974746830582 0.0
  endloop
endfacet
facet normal 0.499999999999998 -0.86602540378444 0.0
  outer loop
    vertex 79.5 -6.06217782649106 0.0
    vertex 80.9497474683058 -4.94974746830582 26.0
    vertex 79.5 -6.06217782649106 26.0
  endloop
endfacet
facet normal 0.499999999999998 -0.86602540378444 0.0
  outer loop
    vertex 79.5 -6.06217782649106 26.0
    vertex 77.8117333157176 -6.76148078402347 0.0
    vertex 79.5 -6.06217782649106 0.0
  endloop
endfacet
facet normal 0.258819045102524 -0.965925826289067 0.0
  outer loop
    vertex 77.8117333157176 -6.76148078402347 0.0
    vertex 79.5 -6.06217782649106 26.0
    vertex 77.8117333157176 -6.76148078402347 26.0
  endloop
endfacet
facet normal 0.258819045102524 -0.965925826289067 0.0
  outer loop
    vertex 77.8117333157176 -6.76148078402347 26.0
    vertex 76.0 -6.99999999999999 0.0
    vertex 77.8117333157176 -6.76148078402347 0.0
  endloop
endfacet
facet normal 0.0 -1.0 0.0
  outer loop
    vertex 76.0 -6.99999999999999 0.0
    vertex 77.8117333157176 -6.76148078402347 26.0
    vertex 76.0 -6.99999999999999 26.0
  endloop
endfacet
facet normal -5.79222143217049e-16 -1.0 0.0
  outer loop
    vertex -1.28587913910472e-15 -7.0 26.0
    vertex -1.81173331571765 -6.76148078402348 0.0
    vertex -1.28587913910472e-15 -7.0 0.0
  endloop
endfacet
facet normal -0.258819045102521 -0.965925826289068 0.0
  outer loop
    vertex -1.81173331571765 -6.76148078402348 0.0
    vertex -1.28587913910472e-15 -7.0 26.0
    vertex -1.81173331571765 -6.76148078402348 26.0
  endloop
endfacet
facet normal -0.258819045102521 -0.965925826289068 0.0
  outer loop
    vertex -1.81173331571765 -6.76148078402348 26.0
    vertex -3.5 -6.06217782649107 0.0
    vertex -1.81173331571765 -6.76148078402348 0.0
  endloop
endfacet
facet normal -0.5 -0.866025403784439 0.0
  outer loop
    vertex -3.5 -6.06217782649107 0.0
    vertex -1.81173331571765 -6.76148078402348 26.0
    vertex -3.5 -6.06217782649107 26.0
  endloop
endfacet
facet normal -0.5 -0.866025403784439 0.0
  outer loop
    vertex -3.5 -6.06217782649107 26.0
    vertex -4.94974746830583 -4.94974746830583 0.0
    vertex -3.5 -6.06217782649107 0.0
  endloop
endfacet
facet normal -0.707106781186548 -0.707106781186547 0.0
  outer loop
    vertex -4.94974746830583 -4.94974746830583 0.0
    vertex -3.5 -6.06217782649107 26.0
    vertex -4.94974746830583 -4.94974746830583 26.0
  endloop
endfacet
facet normal -0.866025403784439 -0.5 0.0
  outer loop
    vertex -6.06217782649107 -3.5 26.0
    vertex -4.94974746830583 -4.94974746830583 0.0
    vertex -4.94974746830583 -4.94974746830583 26.0
  endloop
endfacet
facet normal -0.707106781186548 -0.707106781186547 0.0
  outer loop
    vertex -4.94974746830583 -4.94974746830583 0.0
    vertex -6.06217782649107 -3.5 26.0
    vertex -6.06217782649107 -3.5 0.0
  endloop
endfacet
facet normal -0.965925826289068 -0.25881904510252 0.0
  outer loop
    vertex -6.76148078402348 -1.81173331571764 26.0
    vertex -6.06217782649107 -3.5 0.0
    vertex -6.06217782649107 -3.5 26.0
  endloop
endfacet
facet normal -0.866025403784439 -0.5 0.0
  outer loop
    vertex -6.06217782649107 -3.5 0.0
    vertex -6.76148078402348 -1.81173331571764 26.0
    vertex -6.76148078402348 -1.81173331571764 0.0
  endloop
endfacet
facet normal -1.0 2.76244406765054e-16 0.0
  outer loop
    vertex -7.0 8.57252759403147e-16 26.0
    vertex -6.76148078402348 -1.81173331571764 0.0
    vertex -6.76148078402348 -1.81173331571764 26.0
  endloop
endfacet
facet normal -0.965925826289068 -0.25881904510252 0.0
  outer loop
    vertex -6.76148078402348 -1.81173331571764 0.0
    vertex -7.0 8.57252759403147e-16 26.0
    vertex -7.0 8.57252759403147e-16 0.0
  endloop
endfacet
facet normal -0.965925826289068 0.258819045102521 0.0
  outer loop
    vertex -6.76148078402348 1.81173331571765 26.0
    vertex -7.0 8.57252759403147e-16 0.0
    vertex -7.0 8.57252759403147e-16 26.0
  endloop
endfacet
facet normal -1.0 2.76244406765054e-16 0.0
  outer loop
    vertex -7.0 8.57252759403147e-16 0.0
    vertex -6.76148078402348 1.81173331571765 26.0
    vertex -6.76148078402348 1.81173331571765 0.0
  endloop
endfacet
facet normal -0.866025403784438 0.5 0.0
  outer loop
    vertex -6.06217782649107 3.5 26.0
    vertex -6.76148078402348 1.81173331571765 0.0
    vertex -6.76148078402348 1.81173331571765 26.0
  endloop
endfacet
facet normal -0.965925826289068 0.258819045102521 0.0
  outer loop
    vertex -6.76148078402348 1.81173331571765 0.0
    vertex -6.06217782649107 3.5 26.0
    vertex -6.06217782649107 3.5 0.0
  endloop
endfacet
facet normal -0.707106781186547 0.707106781186547 0.0
  outer loop
    vertex -4.94974746830583 4.94974746830583 26.0
    vertex -6.06217782649107 3.5 0.0
    vertex -6.06217782649107 3.5 26.0
  endloop
endfacet
facet normal -0.866025403784438 0.5 0.0
  outer loop
    vertex -6.06217782649107 3.5 0.0
    vertex -4.94974746830583 4.94974746830583 26.0
    vertex -4.94974746830583 4.94974746830583 0.0
  endloop
endfacet
facet normal -0.707106781186547 0.707106781186547 0.0
  outer loop
    vertex -4.94974746830583 4.94974746830583 26.0
    vertex -3.5 6.06217782649107 0.0
    vertex -4.94974746830583 4.94974746830583 0.0
  endloop
endfacet
facet normal -0.5 0.866025403784439 0.0
  outer loop
    vertex -3.5 6.06217782649107 0.0
    vertex -4.94974746830583 4.94974746830583 26.0
    vertex -3.5 6.06217782649107 26.0
  endloop
endfacet
facet normal -0.5 0.866025403784439 0.0
  outer loop
    vertex -3.5 6.06217782649107 26.0
    vertex -1.81173331571764 6.76148078402348 0.0
    vertex -3.5 6.06217782649107 0.0
  endloop
endfacet
facet normal -0.25881904510252 0.965925826289068 0.0
  outer loop
    vertex -1.81173331571764 6.76148078402348 0.0
    vertex -3.5 6.06217782649107 26.0
    vertex -1.81173331571764 6.76148078402348 26.0
  endloop
endfacet
facet normal -0.25881904510252 0.965925826289068 0.0
  outer loop
    vertex -1.81173331571764 6.76148078402348 26.0
    vertex 4.28626379701574e-16 7.0 0.0
    vertex -1.81173331571764 6.76148078402348 0.0
  endloop
endfacet
facet normal -6.23777692695283e-17 1.0 0.0
  outer loop
    vertex 4.28626379701574e-16 7.0 0.0
    vertex -1.81173331571764 6.76148078402348 26.0
    vertex 4.28626379701574e-16 7.0 26.0
  endloop
endfacet
facet normal 0.965925826289068 0.258819045102521 0.0
  outer loop
    vertex 6.76148078402348 1.81173331571764 0.0
    vertex 7.0 0.0 26.0
    vertex 7.0 0.0 0.0
  endloop
endfacet
facet normal 1.0 -1.96044417704232e-16 0.0
  outer loop
    vertex 7.0 0.0 26.0
    vertex 6.76148078402348 1.81173331571764 0.0
    vertex 6.76148078402348 1.81173331571764 26.0
  endloop
endfacet
facet normal 0.499999999999999 -0.866025403784439 0.0
  outer loop
    vertex 3.49999999999999 -6.06217782649107 26.0
    vertex 1.81173331571764 -6.76148078402348 0.0
    vertex 3.49999999999999 -6.06217782649107 0.0
  endloop
endfacet
facet normal 0.25881904510252 -0.965925826289068 0.0
  outer loop
    vertex 1.81173331571764 -6.76148078402348 0.0
    vertex 3.49999999999999 -6.06217782649107 26.0
    vertex 1.81173331571764 -6.76148078402348 26.0
  endloop
endfacet
facet normal 0.25881904510252 -0.965925826289068 0.0
  outer loop
    vertex 1.81173331571764 -6.76148078402348 26.0
    vertex -1.28587913910472e-15 -7.0 0.0
    vertex 1.81173331571764 -6.76148078402348 0.0
  endloop
endfacet
facet normal -5.79222143217049e-16 -1.0 0.0
  outer loop
    vertex -1.28587913910472e-15 -7.0 0.0
    vertex 1.81173331571764 -6.76148078402348 26.0
    vertex -1.28587913910472e-15 -7.0 26.0
  endloop
endfacet
facet normal 0.707106781186547 -0.707106781186548 0.0
  outer loop
    vertex 4.94974746830583 -4.94974746830583 26.0
    vertex 3.49999999999999 -6.06217782649107 0.0
    vertex 4.94974746830583 -4.94974746830583 0.0
  endloop
endfacet
facet normal 0.499999999999999 -0.866025403784439 0.0
  outer loop
    vertex 3.49999999999999 -6.06217782649107 0.0
    vertex 4.94974746830583 -4.94974746830583 26.0
    vertex 3.49999999999999 -6.06217782649107 26.0
  endloop
endfacet
facet normal -6.23777692695283e-17 1.0 0.0
  outer loop
    vertex 4.28626379701574e-16 7.0 26.0
    vertex 1.81173331571765 6.76148078402348 0.0
    vertex 4.28626379701574e-16 7.0 0.0
  endloop
endfacet
facet normal 0.258819045102521 0.965925826289068 0.0
  outer loop
    vertex 1.81173331571765 6.76148078402348 0.0
    vertex 4.28626379701574e-16 7.0 26.0
    vertex 1.81173331571765 6.76148078402348 26.0
  endloop
endfacet
facet normal 0.707106781186547 0.707106781186548 0.0
  outer loop
    vertex 4.94974746830583 4.94974746830583 0.0
    vertex 6.06217782649107 3.5 26.0
    vertex 6.06217782649107 3.5 0.0
  endloop
endfacet
facet normal 0.866025403784439 0.5 0.0
  outer loop
    vertex 6.06217782649107 3.5 26.0
    vertex 4.94974746830583 4.94974746830583 0.0
    vertex 4.94974746830583 4.94974746830583 26.0
  endloop
endfacet
facet normal 0.866025403784439 0.5 0.0
  outer loop
    vertex 6.06217782649107 3.5 0.0
    vertex 6.76148078402348 1.81173331571764 26.0
    vertex 6.76148078402348 1.81173331571764 0.0
  endloop
endfacet
facet normal 0.965925826289068 0.258819045102521 0.0
  outer loop
    vertex 6.76148078402348 1.81173331571764 26.0
    vertex 6.06217782649107 3.5 0.0
    vertex 6.06217782649107 3.5 26.0
  endloop
endfacet
facet normal 1.0 -1.96044417704232e-16 0.0
  outer loop
    vertex 7.0 0.0 0.0
    vertex 6.76148078402348 -1.81173331571765 26.0
    vertex 6.76148078402348 -1.81173331571765 0.0
  endloop
endfacet
facet normal 0.965925826289068 -0.258819045102521 0.0
  outer loop
    vertex 6.76148078402348 -1.81173331571765 26.0
    vertex 7.0 0.0 0.0
    vertex 7.0 0.0 26.0
  endloop
endfacet
facet normal 0.965925826289068 -0.258819045102521 0.0
  outer loop
    vertex 6.76148078402348 -1.81173331571765 0.0
    vertex 6.06217782649107 -3.5 26.0
    vertex 6.06217782649107 -3.5 0.0
  endloop
endfacet
facet normal 0.866025403784439 -0.5 0.0
  outer loop
    vertex 6.06217782649107 -3.5 26.0
    vertex 6.76148078402348 -1.81173331571765 0.0
    vertex 6.76148078402348 -1.81173331571765 26.0
  endloop
endfacet
facet normal 0.258819045102521 0.965925826289068 0.0
  outer loop
    vertex 1.81173331571765 6.76148078402348 26.0
    vertex 3.5 6.06217782649107 0.0
    vertex 1.81173331571765 6.76148078402348 0.0
  endloop
endfacet
facet normal 0.5 0.866025403784439 0.0
  outer loop
    vertex 3.5 6.06217782649107 0.0
    vertex 1.81173331571765 6.76148078402348 26.0
    vertex 3.5 6.06217782649107 26.0
  endloop
endfacet
facet normal 0.5 0.866025403784439 0.0
  outer loop
    vertex 3.5 6.06217782649107 26.0
    vertex 4.94974746830583 4.94974746830583 0.0
    vertex 3.5 6.06217782649107 0.0
  endloop
endfacet
facet normal 0.707106781186547 0.707106781186548 0.0
  outer loop
    vertex 4.94974746830583 4.94974746830583 0.0
    vertex 3.5 6.06217782649107 26.0
    vertex 4.94974746830583 4.94974746830583 26.0
  endloop
endfacet
facet normal 0.866025403784439 -0.5 0.0
  outer loop
    vertex 6.06217782649107 -3.5 0.0
    vertex 4.94974746830583 -4.94974746830583 26.0
    vertex 4.94974746830583 -4.94974746830583 0.0
  endloop
endfacet
facet normal 0.707106781186547 -0.707106781186548 0.0
  outer loop
    vertex 4.94974746830583 -4.94974746830583 26.0
    vertex 6.06217782649107 -3.5 0.0
    vertex 6.06217782649107 -3.5 26.0
  endloop
endfacet
facet normal -1.58778965104478e-32 3.59356472075074e-31 -1.0
  outer loop
    vertex 76.0 6.99999999999998 26.0
    vertex 1.81173331571765 6.76148078402348 26.0
    vertex 4.28626379701574e-16 7.0 26.0
  endloop
endfacet
facet normal -1.58778965104478e-32 3.59356472075074e-31 -1.0
  outer loop
    vertex 1.81173331571765 6.76148078402348 26.0
    vertex 76.0 6.99999999999998 26.0
    vertex 3.5 6.06217782649107 26.0
  endloop
endfacet
facet normal -1.58778965104478e-32 3.59356472075074e-31 -1.0
  outer loop
    vertex 3.5 6.06217782649107 26.0
    vertex 76.0 6.99999999999998 26.0
    vertex 4.94974746830583 4.94974746830583 26.0
  endloop
endfacet
facet normal -1.58778965104478e-32 3.59356472075074e-31 -1.0
  outer loop
    vertex 4.94974746830583 4.94974746830583 26.0
    vertex 76.0 6.99999999999998 26.0
    vertex 6.06217782649107 3.5 26.0
  endloop
endfacet
facet normal -1.58778965104478e-32 3.59356472075074e-31 -1.0
  outer loop
    vertex 6.06217782649107 3.5 26.0
    vertex 76.0 6.99999999999998 26.0
    vertex 6.76148078402348 1.81173331571764 26.0
  endloop
endfacet
facet normal -1.58778965104478e-32 3.59356472075074e-31 -1.0
  outer loop
    vertex 6.76148078402348 1.81173331571764 26.0
    vertex 76.0 6.99999999999998 26.0
    vertex 7.0 0.0 26.0
  endloop
endfacet
facet normal -1.58778965104478e-32 3.59356472075074e-31 -1.0
  outer loop
    vertex 7.0 0.0 26.0
    vertex 76.0 6.99999999999998 26.0
    vertex 74.1882666842824 6.76148078402346 26.0
  endloop
endfacet
facet normal -1.58778965104478e-32 3.59356472075074e-31 -1.0
  outer loop
    vertex 7.0 0.0 26.0
    vertex 74.1882666842824 6.76148078402346 26.0
    vertex 72.5 6.06217782649107 26.0
  endloop
endfacet
facet normal -1.58778965104478e-32 3.59356472075074e-31 -1.0
  outer loop
    vertex 7.0 0.0 26.0
    vertex 72.5 6.06217782649107 26.0
    vertex 71.0502525316942 4.94974746830583 26.0
  endloop
endfacet
facet normal -1.58778965104478e-32 3.59356472075074e-31 -1.0
  outer loop
    vertex 7.0 0.0 26.0
    vertex 71.0502525316942 4.94974746830583 26.0
    vertex 69.9378221735089 3.49999999999999 26.0
  endloop
endfacet
facet normal -1.58778965104478e-32 3.59356472075074e-31 -1.0
  outer loop
    vertex 7.0 0.0 26.0
    vertex 69.9378221735089 3.49999999999999 26.0
    vertex 69.2385192159766 1.81173331571763 26.0
  endloop
endfacet
facet normal -1.58778965104478e-32 3.59356472075074e-31 -1.0
  outer loop
    vertex 7.0 0.0 26.0
    vertex 69.2385192159766 1.81173331571763 26.0
    vertex 69.0 0.0 26.0
  endloop
endfacet
facet normal -1.58778965104478e-32 3.59356472075074e-31 -1.0
  outer loop
    vertex 1.81173331571764 -6.76148078402348 26.0
    vertex 76.0 -6.99999999999999 26.0
    vertex -1.28587913910472e-15 -7.0 26.0
  endloop
endfacet
facet normal -1.58778965104478e-32 3.59356472075074e-31 -1.0
  outer loop
    vertex 76.0 -6.99999999999999 26.0
    vertex 1.81173331571764 -6.76148078402348 26.0
    vertex 3.49999999999999 -6.06217782649107 26.0
  endloop
endfacet
facet normal -1.58778965104478e-32 3.59356472075074e-31 -1.0
  outer loop
    vertex 76.0 -6.99999999999999 26.0
    vertex 3.49999999999999 -6.06217782649107 26.0
    vertex 4.94974746830583 -4.94974746830583 26.0
  endloop
endfacet
facet normal -1.58778965104478e-32 3.59356472075074e-31 -1.0
  outer loop
    vertex 76.0 -6.99999999999999 26.0
    vertex 4.94974746830583 -4.94974746830583 26.0
    vertex 6.06217782649107 -3.5 26.0
  endloop
endfacet
facet normal -1.58778965104478e-32 3.59356472075074e-31 -1.0
  outer loop
    vertex 76.0 -6.99999999999999 26.0
    vertex 6.06217782649107 -3.5 26.0
    vertex 6.76148078402348 -1.81173331571765 26.0
  endloop
endfacet
facet normal -1.58778965104478e-32 3.59356472075074e-31 -1.0
  outer loop
    vertex 76.0 -6.99999999999999 26.0
    vertex 6.76148078402348 -1.81173331571765 26.0
    vertex 7.0 0.0 26.0
  endloop
endfacet
facet normal -1.58778965104478e-32 3.59356472075074e-31 -1.0
  outer loop
    vertex 76.0 -6.99999999999999 26.0
    vertex 7.0 0.0 26.0
    vertex 74.1882666842824 -6.76148078402347 26.0
  endloop
endfacet
facet normal -1.58778965104478e-32 3.59356472075074e-31 -1.0
  outer loop
    vertex 74.1882666842824 -6.76148078402347 26.0
    vertex 7.0 0.0 26.0
    vertex 72.5 -6.06217782649106 26.0
  endloop
endfacet
facet normal -1.58778965104478e-32 3.59356472075074e-31 -1.0
  outer loop
    vertex 72.5 -6.06217782649106 26.0
    vertex 7.0 0.0 26.0
    vertex 71.0502525316942 -4.94974746830582 26.0
  endloop
endfacet
facet normal -1.58778965104478e-32 3.59356472075074e-31 -1.0
  outer loop
    vertex 71.0502525316942 -4.94974746830582 26.0
    vertex 7.0 0.0 26.0
    vertex 69.9378221735089 -3.49999999999999 26.0
  endloop
endfacet
facet normal -1.58778965104478e-32 3.59356472075074e-31 -1.0
  outer loop
    vertex 69.9378221735089 -3.49999999999999 26.0
    vertex 7.0 0.0 26.0
    vertex 69.2385192159766 -1.81173331571764 26.0
  endloop
endfacet
facet normal -1.58778965104478e-32 3.59356472075074e-31 -1.0
  outer loop
    vertex 69.2385192159766 -1.81173331571764 26.0
    vertex 7.0 0.0 26.0
    vertex 69.0 0.0 26.0
  endloop
endfacet
facet normal -0.96592582628907 -0.258819045102516 0.0
  outer loop
    vertex 69.2385192159766 -1.81173331571764 26.0
    vertex 69.9378221735089 -3.49999999999999 0.0
    vertex 69.9378221735089 -3.49999999999999 26.0
  endloop
endfacet
facet normal -0.866025403784444 -0.499999999999992 0.0
  outer loop
    vertex 69.9378221735089 -3.49999999999999 0.0
    vertex 69.2385192159766 -1.81173331571764 26.0
    vertex 69.2385192159766 -1.81173331571764 0.0
  endloop
endfacet
facet normal -0.707106781186544 0.707106781186551 0.0
  outer loop
    vertex 71.0502525316942 4.94974746830583 26.0
    vertex 69.9378221735089 3.49999999999999 0.0
    vertex 69.9378221735089 3.49999999999999 26.0
  endloop
endfacet
facet normal -0.866025403784444 0.49999999999999 0.0
  outer loop
    vertex 69.9378221735089 3.49999999999999 0.0
    vertex 71.0502525316942 4.94974746830583 26.0
    vertex 71.0502525316942 4.94974746830583 0.0
  endloop
endfacet
facet normal -0.96592582628907 0.258819045102516 0.0
  outer loop
    vertex 69.2385192159766 1.81173331571763 26.0
    vertex 69.0 0.0 0.0
    vertex 69.0 0.0 26.0
  endloop
endfacet
facet normal -1.0 1.1584442864341e-16 0.0
  outer loop
    vertex 69.0 0.0 0.0
    vertex 69.2385192159766 1.81173331571763 26.0
    vertex 69.2385192159766 1.81173331571763 0.0
  endloop
endfacet
facet normal -0.25881904510252 -0.965925826289069 0.0
  outer loop
    vertex 74.1882666842824 -6.76148078402347 26.0
    vertex 72.5 -6.06217782649106 0.0
    vertex 74.1882666842824 -6.76148078402347 0.0
  endloop
endfacet
facet normal -0.500000000000001 -0.866025403784438 0.0
  outer loop
    vertex 72.5 -6.06217782649106 0.0
    vertex 74.1882666842824 -6.76148078402347 26.0
    vertex 72.5 -6.06217782649106 26.0
  endloop
endfacet
facet normal -0.499999999999995 0.866025403784442 0.0
  outer loop
    vertex 72.5 6.06217782649107 26.0
    vertex 74.1882666842824 6.76148078402346 0.0
    vertex 72.5 6.06217782649107 0.0
  endloop
endfacet
facet normal -0.258819045102519 0.965925826289069 0.0
  outer loop
    vertex 74.1882666842824 6.76148078402346 0.0
    vertex 72.5 6.06217782649107 26.0
    vertex 74.1882666842824 6.76148078402346 26.0
  endloop
endfacet
facet normal -0.707106781186544 0.707106781186551 0.0
  outer loop
    vertex 71.0502525316942 4.94974746830583 26.0
    vertex 72.5 6.06217782649107 0.0
    vertex 71.0502525316942 4.94974746830583 0.0
  endloop
endfacet
facet normal -0.499999999999995 0.866025403784442 0.0
  outer loop
    vertex 72.5 6.06217782649107 0.0
    vertex 71.0502525316942 4.94974746830583 26.0
    vertex 72.5 6.06217782649107 26.0
  endloop
endfacet
facet normal 0.0 -1.0 0.0
  outer loop
    vertex 76.0 -6.99999999999999 26.0
    vertex 74.1882666842824 -6.76148078402347 0.0
    vertex 76.0 -6.99999999999999 0.0
  endloop
endfacet
facet normal -0.25881904510252 -0.965925826289069 0.0
  outer loop
    vertex 74.1882666842824 -6.76148078402347 0.0
    vertex 76.0 -6.99999999999999 26.0
    vertex 74.1882666842824 -6.76148078402347 26.0
  endloop
endfacet
facet normal -1.0 1.1584442864341e-16 0.0
  outer loop
    vertex 69.0 0.0 26.0
    vertex 69.2385192159766 -1.81173331571764 0.0
    vertex 69.2385192159766 -1.81173331571764 26.0
  endloop
endfacet
facet normal -0.96592582628907 -0.258819045102516 0.0
  outer loop
    vertex 69.2385192159766 -1.81173331571764 0.0
    vertex 69.0 0.0 26.0
    vertex 69.0 0.0 0.0
  endloop
endfacet
facet normal -0.258819045102519 0.965925826289069 0.0
  outer loop
    vertex 74.1882666842824 6.76148078402346 26.0
    vertex 76.0 6.99999999999998 0.0
    vertex 74.1882666842824 6.76148078402346 0.0
  endloop
endfacet
facet normal 0.0 1.0 0.0
  outer loop
    vertex 76.0 6.99999999999998 0.0
    vertex 74.1882666842824 6.76148078402346 26.0
    vertex 76.0 6.99999999999998 26.0
  endloop
endfacet
facet normal -0.500000000000001 -0.866025403784438 0.0
  outer loop
    vertex 72.5 -6.06217782649106 26.0
    vertex 71.0502525316942 -4.94974746830582 0.0
    vertex 72.5 -6.06217782649106 0.0
  endloop
endfacet
facet normal -0.707106781186548 -0.707106781186547 0.0
  outer loop
    vertex 71.0502525316942 -4.94974746830582 0.0
    vertex 72.5 -6.06217782649106 26.0
    vertex 71.0502525316942 -4.94974746830582 26.0
  endloop
endfacet
facet normal -0.866025403784444 -0.499999999999992 0.0
  outer loop
    vertex 69.9378221735089 -3.49999999999999 26.0
    vertex 71.0502525316942 -4.94974746830582 0.0
    vertex 71.0502525316942 -4.94974746830582 26.0
  endloop
endfacet
facet normal -0.707106781186548 -0.707106781186547 0.0
  outer loop
    vertex 71.0502525316942 -4.94974746830582 0.0
    vertex 69.9378221735089 -3.49999999999999 26.0
    vertex 69.9378221735089 -3.49999999999999 0.0
  endloop
endfacet
facet normal -0.866025403784444 0.49999999999999 0.0
  outer loop
    vertex 69.9378221735089 3.49999999999999 26.0
    vertex 69.2385192159766 1.81173331571763 0.0
    vertex 69.2385192159766 1.81173331571763 26.0
  endloop
endfacet
facet normal -0.96592582628907 0.258819045102516 0.0
  outer loop
    vertex 69.2385192159766 1.81173331571763 0.0
    vertex 69.9378221735089 3.49999999999999 26.0
    vertex 69.9378221735089 3.49999999999999 0.0
  endloop
endfacet
facet normal 1.29866877485758e-16 -1.0 0.0
  outer loop
    vertex 76.0 -6.99999999999999 34.0
    vertex -1.28587913910472e-15 -7.0 26.0
    vertex 76.0 -6.99999999999999 26.0
  endloop
endfacet
facet normal 1.29866877485758e-16 -1.0 0.0
  outer loop
    vertex -1.28587913910472e-15 -7.0 26.0
    vertex 76.0 -6.99999999999999 34.0
    vertex -1.28587913910472e-15 -7.0 34.0
  endloop
endfacet
facet normal 2.22628932832729e-16 1.0 -0.0
  outer loop
    vertex 4.28626379701574e-16 7.0 34.0
    vertex 76.0 6.99999999999998 26.0
    vertex 4.28626379701574e-16 7.0 26.0
  endloop
endfacet
facet normal 2.22628932832729e-16 1.0 -0.0
  outer loop
    vertex 76.0 6.99999999999998 26.0
    vertex 4.28626379701574e-16 7.0 34.0
    vertex 76.0 6.99999999999998 34.0
  endloop
endfacet
facet normal -5.92993727979472e-33 -1.756655707166e-31 1.0
  outer loop
    vertex -6.76148078402348 -1.81173331571764 34.0
    vertex -6.76148078402348 1.81173331571765 34.0
    vertex -7.0 8.57252759403147e-16 34.0
  endloop
endfacet
facet normal -5.92993727979472e-33 -1.756655707166e-31 1.0
  outer loop
    vertex -6.76148078402348 1.81173331571765 34.0
    vertex -6.76148078402348 -1.81173331571764 34.0
    vertex -6.06217782649107 -3.5 34.0
  endloop
endfacet
facet normal -5.92993727979472e-33 -1.756655707166e-31 1.0
  outer loop
    vertex -6.76148078402348 1.81173331571765 34.0
    vertex -6.06217782649107 -3.5 34.0
    vertex -6.06217782649107 3.5 34.0
  endloop
endfacet
facet normal -5.92993727979472e-33 -1.756655707166e-31 1.0
  outer loop
    vertex -6.06217782649107 3.5 34.0
    vertex -6.06217782649107 -3.5 34.0
    vertex -4.94974746830583 -4.94974746830583 34.0
  endloop
endfacet
facet normal -5.92993727979472e-33 -1.756655707166e-31 1.0
  outer loop
    vertex -6.06217782649107 3.5 34.0
    vertex -4.94974746830583 -4.94974746830583 34.0
    vertex -4.94974746830583 4.94974746830583 34.0
  endloop
endfacet
facet normal -5.92993727979472e-33 -1.756655707166e-31 1.0
  outer loop
    vertex -4.94974746830583 4.94974746830583 34.0
    vertex -4.94974746830583 -4.94974746830583 34.0
    vertex -3.5 -6.06217782649107 34.0
  endloop
endfacet
facet normal -5.92993727979472e-33 -1.756655707166e-31 1.0
  outer loop
    vertex -4.94974746830583 4.94974746830583 34.0
    vertex -3.5 -6.06217782649107 34.0
    vertex -3.5 6.06217782649107 34.0
  endloop
endfacet
facet normal -5.92993727979472e-33 -1.756655707166e-31 1.0
  outer loop
    vertex -3.5 6.06217782649107 34.0
    vertex -3.5 -6.06217782649107 34.0
    vertex -1.81173331571765 -6.76148078402348 34.0
  endloop
endfacet
facet normal -5.92993727979472e-33 -1.756655707166e-31 1.0
  outer loop
    vertex -3.5 6.06217782649107 34.0
    vertex -1.81173331571765 -6.76148078402348 34.0
    vertex -1.81173331571764 6.76148078402348 34.0
  endloop
endfacet
facet normal -5.92993727979472e-33 -1.756655707166e-31 1.0
  outer loop
    vertex -1.81173331571764 6.76148078402348 34.0
    vertex -1.81173331571765 -6.76148078402348 34.0
    vertex -1.28587913910472e-15 -7.0 34.0
  endloop
endfacet
facet normal -5.92993727979472e-33 -1.756655707166e-31 1.0
  outer loop
    vertex -1.81173331571764 6.76148078402348 34.0
    vertex -1.28587913910472e-15 -7.0 34.0
    vertex 4.28626379701574e-16 7.0 34.0
  endloop
endfacet
facet normal -5.92993727979472e-33 -1.756655707166e-31 1.0
  outer loop
    vertex 4.28626379701574e-16 7.0 34.0
    vertex -1.28587913910472e-15 -7.0 34.0
    vertex 76.0 -6.99999999999999 34.0
  endloop
endfacet
facet normal -5.92993727979472e-33 -1.756655707166e-31 1.0
  outer loop
    vertex 4.28626379701574e-16 7.0 34.0
    vertex 76.0 -6.99999999999999 34.0
    vertex 76.0 6.99999999999998 34.0
  endloop
endfacet
facet normal -5.92993727979472e-33 -1.756655707166e-31 1.0
  outer loop
    vertex 76.0 6.99999999999998 34.0
    vertex 76.0 -6.99999999999999 34.0
    vertex 77.8117333157176 -6.76148078402347 34.0
  endloop
endfacet
facet normal -5.92993727979472e-33 -1.756655707166e-31 1.0
  outer loop
    vertex 76.0 6.99999999999998 34.0
    vertex 77.8117333157176 -6.76148078402347 34.0
    vertex 77.8117333157176 6.76148078402346 34.0
  endloop
endfacet
facet normal -5.92993727979472e-33 -1.756655707166e-31 1.0
  outer loop
    vertex 77.8117333157176 6.76148078402346 34.0
    vertex 77.8117333157176 -6.76148078402347 34.0
    vertex 79.5 -6.06217782649106 34.0
  endloop
endfacet
facet normal -5.92993727979472e-33 -1.756655707166e-31 1.0
  outer loop
    vertex 77.8117333157176 6.76148078402346 34.0
    vertex 79.5 -6.06217782649106 34.0
    vertex 79.5 6.06217782649107 34.0
  endloop
endfacet
facet normal -5.92993727979472e-33 -1.756655707166e-31 1.0
  outer loop
    vertex 79.5 6.06217782649107 34.0
    vertex 79.5 -6.06217782649106 34.0
    vertex 80.9497474683058 -4.94974746830582 34.0
  endloop
endfacet
facet normal -5.92993727979472e-33 -1.756655707166e-31 1.0
  outer loop
    vertex 79.5 6.06217782649107 34.0
    vertex 80.9497474683058 -4.94974746830582 34.0
    vertex 80.9497474683058 4.94974746830583 34.0
  endloop
endfacet
facet normal -5.92993727979472e-33 -1.756655707166e-31 1.0
  outer loop
    vertex 80.9497474683058 4.94974746830583 34.0
    vertex 80.9497474683058 -4.94974746830582 34.0
    vertex 82.062177826491 -3.49999999999999 34.0
  endloop
endfacet
facet normal -5.92993727979472e-33 -1.756655707166e-31 1.0
  outer loop
    vertex 80.9497474683058 4.94974746830583 34.0
    vertex 82.062177826491 -3.49999999999999 34.0
    vertex 82.0621778264911 3.49999999999999 34.0
  endloop
endfacet
facet normal -5.92993727979472e-33 -1.756655707166e-31 1.0
  outer loop
    vertex 82.0621778264911 3.49999999999999 34.0
    vertex 82.062177826491 -3.49999999999999 34.0
    vertex 82.7614807840235 -1.81173331571765 34.0
  endloop
endfacet
facet normal -5.92993727979472e-33 -1.756655707166e-31 1.0
  outer loop
    vertex 82.0621778264911 3.49999999999999 34.0
    vertex 82.7614807840235 -1.81173331571765 34.0
    vertex 82.7614807840235 1.81173331571763 34.0
  endloop
endfacet
facet normal -5.92993727979472e-33 -1.756655707166e-31 1.0
  outer loop
    vertex 82.7614807840235 1.81173331571763 34.0
    vertex 82.7614807840235 -1.81173331571765 34.0
    vertex 83.0 0.0 34.0
  endloop
endfacet
facet normal -0.25881904510252 0.965925826289069 -2.84722819788316e-19
  outer loop
    vertex -1.81173331571764 6.76148078402348 34.0
    vertex 4.28626379701574e-16 7.0 26.0
    vertex -1.81173331571764 6.76148078402348 26.0
  endloop
endfacet
facet normal -0.130526192220052 0.99144486137381 -5.64573953189974e-19
  outer loop
    vertex 4.28626379701574e-16 7.0 26.0
    vertex -1.81173331571764 6.76148078402348 34.0
    vertex 4.28626379701574e-16 7.0 34.0
  endloop
endfacet
facet normal -0.5 0.866025403784439 0.0
  outer loop
    vertex -3.5 6.06217782649107 34.0
    vertex -1.81173331571764 6.76148078402348 26.0
    vertex -3.5 6.06217782649107 26.0
  endloop
endfacet
facet normal -0.25881904510252 0.965925826289068 -2.84722819788315e-19
  outer loop
    vertex -1.81173331571764 6.76148078402348 26.0
    vertex -3.5 6.06217782649107 34.0
    vertex -1.81173331571764 6.76148078402348 34.0
  endloop
endfacet
facet normal -0.707106781186547 0.707106781186547 0.0
  outer loop
    vertex -4.94974746830583 4.94974746830583 34.0
    vertex -3.5 6.06217782649107 26.0
    vertex -4.94974746830583 4.94974746830583 26.0
  endloop
endfacet
facet normal -0.5 0.866025403784439 0.0
  outer loop
    vertex -3.5 6.06217782649107 26.0
    vertex -4.94974746830583 4.94974746830583 34.0
    vertex -3.5 6.06217782649107 34.0
  endloop
endfacet
facet normal -0.707106781186547 0.707106781186547 0.0
  outer loop
    vertex -4.94974746830583 4.94974746830583 34.0
    vertex -6.06217782649107 3.5 26.0
    vertex -6.06217782649107 3.5 34.0
  endloop
endfacet
facet normal -0.866025403784438 0.5 0.0
  outer loop
    vertex -6.06217782649107 3.5 26.0
    vertex -4.94974746830583 4.94974746830583 34.0
    vertex -4.94974746830583 4.94974746830583 26.0
  endloop
endfacet
facet normal -0.866025403784438 0.5 0.0
  outer loop
    vertex -6.06217782649107 3.5 34.0
    vertex -6.76148078402348 1.81173331571765 26.0
    vertex -6.76148078402348 1.81173331571765 34.0
  endloop
endfacet
facet normal -0.965925826289068 0.258819045102521 0.0
  outer loop
    vertex -6.76148078402348 1.81173331571765 26.0
    vertex -6.06217782649107 3.5 34.0
    vertex -6.06217782649107 3.5 26.0
  endloop
endfacet
facet normal -0.965925826289068 0.258819045102521 0.0
  outer loop
    vertex -6.76148078402348 1.81173331571765 34.0
    vertex -7.0 8.57252759403147e-16 26.0
    vertex -7.0 8.57252759403147e-16 34.0
  endloop
endfacet
facet normal -1.0 2.76244406765054e-16 0.0
  outer loop
    vertex -7.0 8.57252759403147e-16 26.0
    vertex -6.76148078402348 1.81173331571765 34.0
    vertex -6.76148078402348 1.81173331571765 26.0
  endloop
endfacet
facet normal -1.0 2.76244406765054e-16 0.0
  outer loop
    vertex -7.0 8.57252759403147e-16 34.0
    vertex -6.76148078402348 -1.81173331571764 26.0
    vertex -6.76148078402348 -1.81173331571764 34.0
  endloop
endfacet
facet normal -0.965925826289068 -0.25881904510252 0.0
  outer loop
    vertex -6.76148078402348 -1.81173331571764 26.0
    vertex -7.0 8.57252759403147e-16 34.0
    vertex -7.0 8.57252759403147e-16 26.0
  endloop
endfacet
facet normal -0.965925826289068 -0.25881904510252 0.0
  outer loop
    vertex -6.76148078402348 -1.81173331571764 34.0
    vertex -6.06217782649107 -3.5 26.0
    vertex -6.06217782649107 -3.5 34.0
  endloop
endfacet
facet normal -0.866025403784439 -0.5 0.0
  outer loop
    vertex -6.06217782649107 -3.5 26.0
    vertex -6.76148078402348 -1.81173331571764 34.0
    vertex -6.76148078402348 -1.81173331571764 26.0
  endloop
endfacet
facet normal -0.866025403784439 -0.5 0.0
  outer loop
    vertex -6.06217782649107 -3.5 34.0
    vertex -4.94974746830583 -4.94974746830583 26.0
    vertex -4.94974746830583 -4.94974746830583 34.0
  endloop
endfacet
facet normal -0.707106781186548 -0.707106781186547 0.0
  outer loop
    vertex -4.94974746830583 -4.94974746830583 26.0
    vertex -6.06217782649107 -3.5 34.0
    vertex -6.06217782649107 -3.5 26.0
  endloop
endfacet
facet normal -0.5 -0.866025403784439 0.0
  outer loop
    vertex -3.5 -6.06217782649107 34.0
    vertex -4.94974746830583 -4.94974746830583 26.0
    vertex -3.5 -6.06217782649107 26.0
  endloop
endfacet
facet normal -0.707106781186548 -0.707106781186547 0.0
  outer loop
    vertex -4.94974746830583 -4.94974746830583 26.0
    vertex -3.5 -6.06217782649107 34.0
    vertex -4.94974746830583 -4.94974746830583 34.0
  endloop
endfacet
facet normal -0.258819045102521 -0.965925826289068 -2.84722819788267e-19
  outer loop
    vertex -1.81173331571765 -6.76148078402348 34.0
    vertex -3.5 -6.06217782649107 26.0
    vertex -1.81173331571765 -6.76148078402348 26.0
  endloop
endfacet
facet normal -0.5 -0.866025403784439 0.0
  outer loop
    vertex -3.5 -6.06217782649107 26.0
    vertex -1.81173331571765 -6.76148078402348 34.0
    vertex -3.5 -6.06217782649107 34.0
  endloop
endfacet
facet normal -0.130526192220052 -0.99144486137381 -5.64573953189878e-19
  outer loop
    vertex -1.28587913910472e-15 -7.0 34.0
    vertex -1.81173331571765 -6.76148078402348 26.0
    vertex -1.28587913910472e-15 -7.0 26.0
  endloop
endfacet
facet normal -0.258819045102521 -0.965925826289068 -2.84722819788267e-19
  outer loop
    vertex -1.81173331571765 -6.76148078402348 26.0
    vertex -1.28587913910472e-15 -7.0 34.0
    vertex -1.81173331571765 -6.76148078402348 34.0
  endloop
endfacet
facet normal 0.258819045102524 -0.965925826289067 -2.8472281978845e-19
  outer loop
    vertex 77.8117333157176 -6.76148078402347 34.0
    vertex 76.0 -6.99999999999999 26.0
    vertex 77.8117333157176 -6.76148078402347 26.0
  endloop
endfacet
facet normal 0.130526192220049 -0.991444861373811 -5.6457395319024e-19
  outer loop
    vertex 76.0 -6.99999999999999 26.0
    vertex 77.8117333157176 -6.76148078402347 34.0
    vertex 76.0 -6.99999999999999 34.0
  endloop
endfacet
facet normal 0.499999999999998 -0.86602540378444 0.0
  outer loop
    vertex 79.5 -6.06217782649106 34.0
    vertex 77.8117333157176 -6.76148078402347 26.0
    vertex 79.5 -6.06217782649106 26.0
  endloop
endfacet
facet normal 0.258819045102524 -0.965925826289067 -2.8472281978845e-19
  outer loop
    vertex 77.8117333157176 -6.76148078402347 26.0
    vertex 79.5 -6.06217782649106 34.0
    vertex 77.8117333157176 -6.76148078402347 34.0
  endloop
endfacet
facet normal 0.707106781186548 -0.707106781186548 0.0
  outer loop
    vertex 80.9497474683058 -4.94974746830582 34.0
    vertex 79.5 -6.06217782649106 26.0
    vertex 80.9497474683058 -4.94974746830582 26.0
  endloop
endfacet
facet normal 0.499999999999998 -0.86602540378444 0.0
  outer loop
    vertex 79.5 -6.06217782649106 26.0
    vertex 80.9497474683058 -4.94974746830582 34.0
    vertex 79.5 -6.06217782649106 34.0
  endloop
endfacet
facet normal 0.866025403784441 -0.499999999999996 0.0
  outer loop
    vertex 82.062177826491 -3.49999999999999 26.0
    vertex 80.9497474683058 -4.94974746830582 34.0
    vertex 80.9497474683058 -4.94974746830582 26.0
  endloop
endfacet
facet normal 0.707106781186548 -0.707106781186548 0.0
  outer loop
    vertex 80.9497474683058 -4.94974746830582 34.0
    vertex 82.062177826491 -3.49999999999999 26.0
    vertex 82.062177826491 -3.49999999999999 34.0
  endloop
endfacet
facet normal 0.965925826289066 -0.258819045102528 0.0
  outer loop
    vertex 82.7614807840235 -1.81173331571765 26.0
    vertex 82.062177826491 -3.49999999999999 34.0
    vertex 82.062177826491 -3.49999999999999 26.0
  endloop
endfacet
facet normal 0.866025403784441 -0.499999999999996 0.0
  outer loop
    vertex 82.062177826491 -3.49999999999999 34.0
    vertex 82.7614807840235 -1.81173331571765 26.0
    vertex 82.7614807840235 -1.81173331571765 34.0
  endloop
endfacet
facet normal 1.0 4.9011104426058e-16 0.0
  outer loop
    vertex 83.0 0.0 26.0
    vertex 82.7614807840235 -1.81173331571765 34.0
    vertex 82.7614807840235 -1.81173331571765 26.0
  endloop
endfacet
facet normal 0.965925826289066 -0.258819045102528 0.0
  outer loop
    vertex 82.7614807840235 -1.81173331571765 34.0
    vertex 83.0 0.0 26.0
    vertex 83.0 0.0 34.0
  endloop
endfacet
facet normal 0.96592582628907 0.258819045102516 0.0
  outer loop
    vertex 82.7614807840235 1.81173331571763 26.0
    vertex 83.0 0.0 34.0
    vertex 83.0 0.0 26.0
  endloop
endfacet
facet normal 1.0 4.9011104426058e-16 0.0
  outer loop
    vertex 83.0 0.0 34.0
    vertex 82.7614807840235 1.81173331571763 26.0
    vertex 82.7614807840235 1.81173331571763 34.0
  endloop
endfacet
facet normal 0.866025403784443 0.499999999999992 0.0
  outer loop
    vertex 82.0621778264911 3.49999999999999 26.0
    vertex 82.7614807840235 1.81173331571763 34.0
    vertex 82.7614807840235 1.81173331571763 26.0
  endloop
endfacet
facet normal 0.96592582628907 0.258819045102516 0.0
  outer loop
    vertex 82.7614807840235 1.81173331571763 34.0
    vertex 82.0621778264911 3.49999999999999 26.0
    vertex 82.0621778264911 3.49999999999999 34.0
  endloop
endfacet
facet normal 0.707106781186548 0.707106781186547 0.0
  outer loop
    vertex 80.9497474683058 4.94974746830583 26.0
    vertex 82.0621778264911 3.49999999999999 34.0
    vertex 82.0621778264911 3.49999999999999 26.0
  endloop
endfacet
facet normal 0.866025403784443 0.499999999999992 0.0
  outer loop
    vertex 82.0621778264911 3.49999999999999 34.0
    vertex 80.9497474683058 4.94974746830583 26.0
    vertex 80.9497474683058 4.94974746830583 34.0
  endloop
endfacet
facet normal 0.499999999999997 0.86602540378444 0.0
  outer loop
    vertex 79.5 6.06217782649107 34.0
    vertex 80.9497474683058 4.94974746830583 26.0
    vertex 79.5 6.06217782649107 26.0
  endloop
endfacet
facet normal 0.707106781186548 0.707106781186547 0.0
  outer loop
    vertex 80.9497474683058 4.94974746830583 26.0
    vertex 79.5 6.06217782649107 34.0
    vertex 80.9497474683058 4.94974746830583 34.0
  endloop
endfacet
facet normal 0.258819045102514 0.96592582628907 -2.8472281978845e-19
  outer loop
    vertex 77.8117333157176 6.76148078402346 34.0
    vertex 79.5 6.06217782649107 26.0
    vertex 77.8117333157176 6.76148078402346 26.0
  endloop
endfacet
facet normal 0.499999999999997 0.86602540378444 0.0
  outer loop
    vertex 79.5 6.06217782649107 26.0
    vertex 77.8117333157176 6.76148078402346 34.0
    vertex 79.5 6.06217782649107 34.0
  endloop
endfacet
facet normal 0.130526192220049 0.991444861373811 -5.6457395319024e-19
  outer loop
    vertex 76.0 6.99999999999998 34.0
    vertex 77.8117333157176 6.76148078402346 26.0
    vertex 76.0 6.99999999999998 26.0
  endloop
endfacet
facet normal 0.258819045102514 0.96592582628907 -2.8472281978845e-19
  outer loop
    vertex 77.8117333157176 6.76148078402346 26.0
    vertex 76.0 6.99999999999998 34.0
    vertex 77.8117333157176 6.76148078402346 34.0
  endloop
endfacet
endsolid handleSimple
